<?xml version="1.0" encoding="utf-8"?>
<!-- Generator: Adobe Illustrator 24.0.0, SVG Export Plug-In . SVG Version: 6.00 Build 0)  -->
<svg version="1.1" id="Layer_1" xmlns="http://www.w3.org/2000/svg" xmlns:xlink="http://www.w3.org/1999/xlink" x="0px" y="0px"
	 viewBox="0 0 85.3 85.3" style="enable-background:new 0 0 85.3 85.3;" xml:space="preserve">
<style type="text/css">
	.st0{fill:#FFFFFF;}
	.st1{fill:none;stroke:#FFFFFF;stroke-width:2;stroke-linecap:round;stroke-miterlimit:10;}
	.st2{fill:#EDEDED;}
	.st3{fill:url(#SVGID_1_);}
	.st4{fill:url(#SVGID_2_);}
	.st5{fill:url(#SVGID_3_);}
	.st6{fill:url(#SVGID_4_);}
	.st7{fill:url(#SVGID_5_);}
	.st8{fill:url(#SVGID_6_);}
	.st9{fill:url(#SVGID_7_);}
	.st10{fill:url(#SVGID_8_);}
	.st11{fill:url(#SVGID_9_);}
	.st12{fill:url(#SVGID_10_);}
	.st13{fill:url(#SVGID_11_);}
	.st14{fill:url(#SVGID_12_);}
	.st15{fill:url(#SVGID_13_);}
	.st16{fill:url(#SVGID_14_);}
	.st17{fill:url(#SVGID_15_);}
	.st18{fill:url(#SVGID_16_);}
	.st19{fill:url(#SVGID_17_);}
	.st20{fill:#72C8B5;}
	.st21{fill:none;stroke:#FFFFFF;stroke-width:3;stroke-linecap:round;stroke-miterlimit:10;}
	.st22{fill:url(#SVGID_18_);}
	.st23{fill:url(#SVGID_19_);}
	.st24{fill:url(#SVGID_20_);}
	.st25{fill:url(#SVGID_21_);}
	.st26{fill:url(#SVGID_22_);}
	.st27{fill:url(#SVGID_23_);}
	.st28{fill:url(#SVGID_24_);}
	.st29{fill:url(#SVGID_25_);}
	.st30{fill:url(#SVGID_26_);}
	.st31{fill:url(#SVGID_27_);}
	.st32{fill:url(#SVGID_28_);}
	.st33{fill:url(#SVGID_29_);}
	.st34{fill:url(#SVGID_30_);}
	.st35{fill:url(#SVGID_31_);}
	.st36{fill:url(#SVGID_32_);}
	.st37{fill:url(#SVGID_33_);}
	.st38{fill:url(#SVGID_34_);}
	.st39{fill:none;stroke:#FFFFFF;stroke-linecap:round;stroke-miterlimit:10;}
</style>
<g>
	<g>
		<path class="st0" d="M42.7,30.3c6.9,0,12.4,5.6,12.4,12.4s-5.6,12.4-12.4,12.4s-12.4-5.6-12.4-12.4S35.8,30.3,42.7,30.3
			 M42.7,28.3c-7.9,0-14.4,6.5-14.4,14.4s6.5,14.4,14.4,14.4s14.4-6.5,14.4-14.4S50.6,28.3,42.7,28.3L42.7,28.3z"/>
	</g>
	<g>
		<path class="st0" d="M42.9,9.8c0.4,0,0.9,0,1.3,0C59.7,10.5,72.5,22.1,75,37.1H64C61.7,28,53.6,21.1,43.9,20.6c-0.3,0-0.7,0-1,0
			C31,20.6,21.3,30.1,21.1,42h0v25.4c0,5.9-4.8,10.8-10.8,10.8V42h0C10.6,24.2,25.1,9.8,42.9,9.8 M42.9,7.8
			C24.7,7.8,9.7,22.1,8.4,40H8.4l0,2v36.2v2h2c7,0,12.8-5.7,12.8-12.8V42v-0.6c0.5-10.4,9.2-18.8,19.8-18.8c0.3,0,0.6,0,0.9,0
			c8.6,0.4,16.1,6.6,18.3,15l0.4,1.5H64h11h2.4L77,36.8C74.3,20.7,60.6,8.5,44.2,7.9C43.8,7.8,43.3,7.8,42.9,7.8L42.9,7.8z"/>
	</g>
	<path class="st1" d="M26.2,70.9c5.2,3.1,11.4,4.9,18,4.6C59.7,74.9,72.5,63.2,75,48.2H64c-2.3,9.1-10.4,16.1-20.1,16.5
		c-7.1,0.3-13.5-2.8-17.7-7.8"/>
	<path class="st1" d="M19.5,12.3c-1.9-3.1-5.3-5.2-9.2-5.2V23"/>
</g>
</svg>
