<?xml version="1.0" encoding="utf-8"?>
<!-- Generator: Adobe Illustrator 24.0.0, SVG Export Plug-In . SVG Version: 6.00 Build 0)  -->
<svg version="1.1" id="Layer_1" xmlns="http://www.w3.org/2000/svg" xmlns:xlink="http://www.w3.org/1999/xlink" x="0px" y="0px"
	 viewBox="0 0 70.5 73.8" style="enable-background:new 0 0 70.5 73.8;" xml:space="preserve">
<style type="text/css">
	.st0{fill:#FFFFFF;}
</style>
<path class="st0" d="M67.5,30.3c0-2.2-1.8-4-4-4H31.3c-2.2,0-4,1.8-4,4l0,36.2l8-8h28.2c2.2,0,4-1.8,4-4V30.3z M39.3,50.4h-4v-4h4
	V50.4z M39.3,44.4h-4v-4h4V44.4z M39.3,38.3h-4v-4h4V38.3z M53.4,50.4H43.4v-4h10.1V50.4z M59.5,44.4H43.4v-4h16.1V44.4z M59.5,38.3
	H43.4v-4h16.1V38.3z"/>
<path class="st0" d="M24.3,40.1H13.4v-4.5H8.9V13.4h4.5V8.9h22.3v4.5h4.5v9.9h4.5v-9.9H49V0H35.6v4.5H13.4V0H0v13.4h4.5v22.3H0V49
	h13.4v0v-4.5h10.9L24.3,40.1z M40.1,4.5h4.5v4.5h-4.5V4.5z M4.5,4.5h4.5v4.5H4.5V4.5z M8.9,44.5H4.5v-4.5l4.5,0V44.5z"/>
<path id="Rectangle_3" class="st0" d="M14,24h8c0.6,0,1,0.4,1,1v8c0,0.6-0.4,1-1,1h-8c-0.6,0-1-0.4-1-1v-8C13,24.4,13.4,24,14,24z"
	/>
<circle id="Ellipse_1" class="st0" cx="29" cy="17" r="5"/>
<path id="Polygon_1" class="st0" d="M17.1,12.6c0.3-0.5,0.9-0.7,1.4-0.4c0.2,0.1,0.3,0.2,0.4,0.4l4.3,7.9c0.3,0.5,0.1,1.1-0.4,1.4
	C22.6,22,22.5,22,22.3,22h-8.6c-0.6,0-1-0.4-1-1c0-0.2,0-0.3,0.1-0.5L17.1,12.6z"/>
</svg>
