<?xml version="1.0" encoding="utf-8"?>
<!-- Generator: Adobe Illustrator 24.0.0, SVG Export Plug-In . SVG Version: 6.00 Build 0)  -->
<svg version="1.1" id="Layer_1" xmlns="http://www.w3.org/2000/svg" xmlns:xlink="http://www.w3.org/1999/xlink" x="0px" y="0px"
	 viewBox="0 0 76.4 74" style="enable-background:new 0 0 76.4 74;" xml:space="preserve">
<style type="text/css">
	.st0{fill:#FFFFFF;}
</style>
<path class="st0" d="M69.4,26.5H37.2c-2.2,0-4,1.8-4,4l0,36.2l8-8h28.2c2.2,0,4-1.8,4-4V30.5C73.4,28.3,71.6,26.5,69.4,26.5z
	 M45.2,50.6h-4v-4h4V50.6z M45.2,44.6h-4v-4h4V44.6z M45.2,38.6h-4v-4h4V38.6z M59.3,50.6H49.3v-4h10.1V50.6z M65.3,44.6H49.3v-4
	h16.1V44.6z M65.3,38.6H49.3v-4h16.1V38.6z"/>
<path class="st0" d="M24,43.3h6.1l0-6.7h-7.5L22,33.3h8.2l0-2.7c0-3.9,3.1-7,7-7h19.5l3.1-13.8c0.3-1.3-0.5-2.7-1.9-3
	c-0.2,0-0.4-0.1-0.5-0.1H16.6l-1-4.7c-0.2-1.2-1.3-2-2.4-2H2.5C1.1,0,0,1.1,0,2.5v1.7c0,1.4,1.1,2.5,2.5,2.5h7.3l7.3,35.7
	c-2.8,1.6-3.8,5.2-2.2,7.9c1.6,2.8,5.2,3.8,7.9,2.2s3.8-5.2,2.2-7.9C24.7,44.1,24.4,43.6,24,43.3z"/>
</svg>
