<?xml version="1.0" encoding="utf-8"?>
<!-- Generator: Adobe Illustrator 24.0.0, SVG Export Plug-In . SVG Version: 6.00 Build 0)  -->
<svg version="1.1" id="Layer_1" xmlns="http://www.w3.org/2000/svg" xmlns:xlink="http://www.w3.org/1999/xlink" x="0px" y="0px"
	 viewBox="0 0 80.5 75.8" style="enable-background:new 0 0 80.5 75.8;" xml:space="preserve">
<style type="text/css">
	.st0{fill:#FFFFFF;}
</style>
<g>
	<path class="st0" d="M12.2,33.7H3.1c-1.7,0-3.1,1.4-3.1,3.1c0,0,0,0,0,0v9.2C0,47.6,1.4,49,3.1,49l0,0h9.2c1.7,0,3.1-1.4,3.1-3.1
		l0,0v-9.2C15.3,35.1,13.9,33.7,12.2,33.7C12.2,33.7,12.2,33.7,12.2,33.7z"/>
	<path class="st0" d="M41.3,25.3h14.6v-0.2c0-2-1.6-3.7-3.7-3.7H32.9v-6.1h3.8c1.7,0,3.1-1.4,3.1-3.1V3.1c0-1.7-1.4-3.1-3.1-3.1
		H24.5c-1.7,0-3.1,1.4-3.1,3.1v9.2c0,1.7,1.4,3.1,3.1,3.1h3.8v6.1H9c-2,0-3.7,1.6-3.7,3.7v5.5H10l0-4.6h18.4v4.6h4.6V26h5.2
		C39.1,25.5,40.2,25.3,41.3,25.3z"/>
	<path class="st0" d="M34.3,33.7H26c-1.7,0-3.1,1.4-3.1,3.1v9.2c0,1.7,1.4,3.1,3.1,3.1h8.3L34.3,33.7z"/>
	<path class="st0" d="M73.5,28.3H41.3c-2.2,0-4,1.8-4,4l0,36.2l8-8h28.2c2.2,0,4-1.8,4-4V32.3C77.5,30.1,75.7,28.3,73.5,28.3z
		 M49.3,52.4h-4v-4h4V52.4z M49.3,46.4h-4v-4h4V46.4z M49.3,40.3h-4v-4h4V40.3z M63.4,52.4H53.4v-4h10.1V52.4z M69.5,46.4H53.4v-4
		h16.1V46.4z M69.5,40.3H53.4v-4h16.1V40.3z"/>
</g>
</svg>
