<?xml version="1.0" encoding="UTF-8"?><svg id="Layer_2" xmlns="http://www.w3.org/2000/svg" viewBox="0 0 101.33 72.94"><defs><style>.cls-1{fill:#115598;}.cls-2{fill:#e9640b;}</style></defs><g id="Layer_1-2"><g><path class="cls-2" d="M61.39,66.53l-1.41-.73h.01l-17.06-9c-1.97,.64-4.07,1-6.26,1-11.2,0-20.27-9.08-20.27-20.27s9.08-20.27,20.27-20.27,20.27,9.08,20.27,20.27c0,6.37-2.95,12.05-7.54,15.77l15.19,8.01c2-2.35,3.71-4.98,5.1-7.91,2.36-4.96,3.55-10.38,3.55-16.26,0-7.02-1.62-13.32-4.86-18.9-3.24-5.57-7.65-9.91-13.22-13.02C49.59,2.12,43.43,.56,36.68,.56s-12.83,1.55-18.44,4.66c-5.61,3.11-10.05,7.45-13.32,13.02C1.64,23.81,0,30.11,0,37.14s1.64,13.32,4.91,18.9c3.28,5.57,7.72,9.93,13.32,13.07,3.21,1.8,6.61,3.07,10.18,3.84h45.12l-12.15-6.4Z"/><circle class="cls-1" cx="36.77" cy="37.86" r="11.61"/><path class="cls-2" d="M90.26,22.13c-6.1,0-11.07-4.96-11.07-11.07S84.16,0,90.26,0s11.07,4.96,11.07,11.07-4.96,11.07-11.07,11.07Zm0-17.01c-3.28,0-5.94,2.67-5.94,5.94s2.67,5.94,5.94,5.94,5.94-2.67,5.94-5.94-2.67-5.94-5.94-5.94Z"/><rect class="cls-2" x="65.44" y="17.45" width="15.89" height="3" transform="translate(-1.46 30.88) rotate(-23.54)"/></g></g></svg>