<svg cache-id="3581cd5a1d9e4fd9ba3932f6abd00ed0" id="ee5bKa4yH8A1" xmlns="http://www.w3.org/2000/svg" xmlns:xlink="http://www.w3.org/1999/xlink" viewBox="0 0 237.143 229.095" shape-rendering="geometricPrecision" text-rendering="geometricPrecision"><style><![CDATA[#ee5bKa4yH8A6_tr {animation: ee5bKa4yH8A6_tr__tr 1600ms linear infinite normal forwards}@keyframes ee5bKa4yH8A6_tr__tr { 0% {transform: translate(865.435999px,383.266999px) rotate(20deg)} 25% {transform: translate(865.435999px,383.266999px) rotate(20deg)} 50% {transform: translate(865.435999px,383.266999px) rotate(147deg)} 75% {transform: translate(865.435999px,383.266999px) rotate(360deg)} 100% {transform: translate(865.435999px,383.266999px) rotate(720deg)}} #ee5bKa4yH8A9_tr {animation: ee5bKa4yH8A9_tr__tr 1600ms linear infinite normal forwards}@keyframes ee5bKa4yH8A9_tr__tr { 0% {transform: translate(865.435999px,383.266999px) rotate(60deg)} 25% {transform: translate(865.435999px,383.266999px) rotate(60deg)} 50% {transform: translate(865.435999px,383.266999px) rotate(169deg)} 75% {transform: translate(865.435999px,383.266999px) rotate(360deg)} 100% {transform: translate(865.435999px,383.266999px) rotate(720deg)}} #ee5bKa4yH8A12_tr {animation: ee5bKa4yH8A12_tr__tr 1600ms linear infinite normal forwards}@keyframes ee5bKa4yH8A12_tr__tr { 0% {transform: translate(865.435999px,383.266999px) rotate(0deg)} 25% {transform: translate(865.435999px,383.266999px) rotate(120deg)} 50% {transform: translate(865.435999px,383.266999px) rotate(200deg)} 75% {transform: translate(865.435999px,383.266999px) rotate(360deg)} 100% {transform: translate(865.435999px,383.266999px) rotate(720deg)}} #ee5bKa4yH8A15_to {animation: ee5bKa4yH8A15_to__to 1600ms linear infinite normal forwards}@keyframes ee5bKa4yH8A15_to__to { 0% {transform: translate(1.87948px,-0.233001px)} 25% {transform: translate(-15.310407px,14.351079px)} 50% {transform: translate(19.306px,14.351079px)} 75% {transform: translate(1.936px,-16.150505px)} 100% {transform: translate(1.936px,-0.233px)}} #ee5bKa4yH8A16_ts {animation: ee5bKa4yH8A16_ts__ts 1600ms linear infinite normal forwards}@keyframes ee5bKa4yH8A16_ts__ts { 0% {transform: translate(863.5px,383.5px) scale(1,1)} 25% {transform: translate(863.5px,383.5px) scale(0.74,0.82)} 100% {transform: translate(863.5px,383.5px) scale(1,1)}} #ee5bKa4yH8A27_to {animation: ee5bKa4yH8A27_to__to 1600ms linear infinite normal forwards}@keyframes ee5bKa4yH8A27_to__to { 0% {transform: translate(-13.155305px,227.227016px)} 50% {transform: translate(118.57147px,227.227016px)} 100% {transform: translate(250.220579px,227.227016px)}} #ee5bKa4yH8A27_ts {animation: ee5bKa4yH8A27_ts__ts 1600ms linear infinite normal forwards}@keyframes ee5bKa4yH8A27_ts__ts { 0% {transform: scale(1.26,0.405251)} 25% {transform: scale(80,0.405251)} 50% {transform: scale(60,0.405251)} 75% {transform: scale(60,0.405251)} 100% {transform: scale(1.406883,0.405251)}}]]></style><defs><linearGradient id="ee5bKa4yH8A4-fill" x1="-0.312" y1="0.933" x2="1.112" y2="0.132" spreadMethod="pad" gradientUnits="objectBoundingBox" gradientTransform="translate(0 0)"><stop id="ee5bKa4yH8A4-fill-0" offset="52%" stop-color="#e75226"/><stop id="ee5bKa4yH8A4-fill-1" offset="84.5%" stop-color="#fb9b23"/><stop id="ee5bKa4yH8A4-fill-2" offset="100%" stop-color="#ffc621"/></linearGradient><linearGradient id="ee5bKa4yH8A5-fill" x1="-0.12" y1="1.156" x2="0.798" y2="0.167" spreadMethod="pad" gradientUnits="objectBoundingBox" gradientTransform="translate(0 0)"><stop id="ee5bKa4yH8A5-fill-0" offset="52%" stop-color="#e75226"/><stop id="ee5bKa4yH8A5-fill-1" offset="84.5%" stop-color="#fb9b23"/><stop id="ee5bKa4yH8A5-fill-2" offset="100%" stop-color="#ffc621"/></linearGradient></defs><g transform="translate(-783.311-286.905)"><ellipse rx="42.641" ry="42.641" transform="translate(865.436 383.267)" fill="none" stroke="#f1f1f1" stroke-width="10" stroke-linecap="round"/><path d="M246.824,320.7c3.96262,3.496277,7.674443,7.266912,11.108,11.284c16.062905,3.254091,29.904444,13.359175,37.897389,27.667175s9.340528,31.39264,3.689611,46.776825c18.423-34.874,26.66-82.852,26.236-91.764-.224-5.59-2.907-9.391-8.049-9.615-5.367-.447-7.826,2.46-8.273,6.261-.408634,10.266188-1.907728,20.459824-4.472,30.409-.223-1.341-2.012-10.285-2.012-10.285-4.025-17.441-12.075-30.186-12.522-31.528s-3.8-8.273-9.838-8.5c-6.261,0-7.826,5.367-8.05,8.5v.671c.223,2.683,2.012,4.919,3.354,7.155c1.547843,2.534915,2.965677,5.146959,4.248,7.826c2.402625,5.417842,4.347093,11.027463,5.813,16.77.960221,3.754679,1.706753,7.560789,2.236,11.4.273734,1.021683.423808,2.072537.447,3.13-.067586.318623-.092804.644775-.075.97-6.945449-14.053513-16.478673-26.671295-28.1-37.192l-8.049-6.708c-2.46-2.013-5.814-3.578-8.944-2.46-2.016117.932815-3.668165,2.504721-4.7,4.472-.922911,1.958665-1.082293,4.191089-.447,6.261c1.347,3.808,5.595,5.82,8.502,8.499Z" transform="translate(617.817-4.508)" fill="url(#ee5bKa4yH8A4-fill)"/><path d="M393.624,512.841c-1.907-3.1-5.243-4.766-8.1-6.435-9.295-5.482-18.829-11.2-28.362-16.684-5.958-3.814-12.155-7.389-18.352-10.964-5.005-3.1-8.818.477-9.533-.238l-3.521-2.486c-1.545026,3.071595-3.351701,6.00443-5.4,8.766l4.4,2.777c.162556,1.362947.401263,2.715729.715,4.052.489682,1.172329,1.220507,2.228532,2.145,3.1c1.907,1.669,4.528,2.622,6.673,4.052c9.772,5.72,19.306,11.2,28.839,16.922c5.72,3.336,11.2,7.15,17.161,10.248c7.853,4.289,18.579-4.768,13.335-13.11Z" transform="translate(585.031-60.16)" fill="url(#ee5bKa4yH8A5-fill)"/><g id="ee5bKa4yH8A6_tr" transform="translate(865.435999,383.266999) rotate(20)"><g transform="translate(-42.640999,-42.640999)"><path d="M161.761,84.5c0,11.273822-4.478508,22.085898-12.450304,30.057694s-18.783873,12.450306-30.057696,12.450306" transform="translate(-76.496-41.861)" fill="none" stroke="#f9ab36" stroke-width="10" stroke-linecap="round"/><ellipse rx="42.641" ry="42.641" transform="translate(42.641 42.641)" fill="none"/></g></g><g id="ee5bKa4yH8A9_tr" transform="translate(865.435999,383.266999) rotate(60)"><g transform="translate(-42.640999,-42.640999)"><path d="M161.761,84.5c0,11.273822-4.478508,22.085898-12.450304,30.057694s-18.783873,12.450306-30.057696,12.450306" transform="translate(-76.496-41.861)" fill="none" stroke="#f37e24" stroke-width="10" stroke-linecap="round"/><ellipse rx="42.641" ry="42.641" transform="translate(42.641 42.641)" fill="none"/></g></g><g id="ee5bKa4yH8A12_tr" transform="translate(865.435999,383.266999) rotate(0)"><g transform="translate(-42.640999,-42.640999)"><path d="M85.015,84.5c-.113476,23.395769-19.111456,42.301826-42.5075,42.301826s-42.394024-18.906057-42.5075-42.301826" transform="translate(.25-41.861)" fill="none" stroke="#f16933" stroke-width="10" stroke-linecap="round"/><ellipse rx="42.641" ry="42.641" transform="translate(42.641 42.641)" fill="none"/></g></g><g id="ee5bKa4yH8A15_to" transform="translate(1.87948,-0.233001)"><g transform="translate(0,0)"><g id="ee5bKa4yH8A16_ts" transform="translate(863.5,383.5) scale(1,1)"><circle r="18.5" transform="translate(0,0)" fill="#e7e7e7"/></g><g transform="translate(852 372)"><ellipse rx="11.75" ry="11.748" transform="translate(11.75 11.748)"/><g clip-path="url(#ee5bKa4yH8A24)"><g><g transform="translate(9.574 0)"><ellipse rx="5.657" ry="5.656" transform="translate(8.268 5.656)" fill="#fff"/><ellipse rx="2.611" ry="3.046" transform="translate(2.611 16.099)" fill="#fff"/></g></g><clipPath id="ee5bKa4yH8A24"><ellipse rx="11.75" ry="11.748" transform="translate(11.75 11.748)"/></clipPath></g></g></g></g></g><rect width="188.219173" height="9.218899" rx="0" ry="0" transform="matrix(1.406802 0 0 0.405251-13.822054 225.359032)" fill="#ddd" stroke-width="0" stroke-linecap="round"/><g id="ee5bKa4yH8A27_to" transform="translate(-13.155305,227.227016)"><g id="ee5bKa4yH8A27_ts" transform="scale(1.26,0.405251)"><rect width="1.058333" height="9.218899" rx="0" ry="0" transform="translate(-0.529166,-4.60945)" fill="#f16933" stroke-width="0" stroke-linecap="round"/></g></g></svg>