<svg xmlns="http://www.w3.org/2000/svg" width="11.294" height="11.277" viewBox="0 0 11.294 11.277">
  <path id="remark-icon" d="M176.188,248.219c.924,0,1.849-.006,2.773,0a2.806,2.806,0,0,1,2.8,2.227,3.317,3.317,0,0,1,.071.707c.007,1.224,0,2.447,0,3.671a2.823,2.823,0,0,1-2.959,2.947c-1.126,0-.888-.122-1.58.78-.128.168-.253.338-.38.506a.816.816,0,0,1-1.439.007c-.234-.308-.472-.614-.7-.929a.846.846,0,0,0-.737-.373,6.334,6.334,0,0,1-1.489-.125,2.746,2.746,0,0,1-2-2.675c-.014-1.312-.018-2.623,0-3.935a2.815,2.815,0,0,1,2.862-2.807C174.339,248.211,175.264,248.219,176.188,248.219Zm-.01,3.8c.923,0,1.847,0,2.77,0,.279,0,.445-.133.47-.358.035-.3-.161-.485-.538-.485q-2.691,0-5.382,0c-.355,0-.543.155-.54.434s.181.409.528.409Q174.833,252.024,176.178,252.022Zm-1.133,2.831c.546,0,1.091,0,1.637,0a.451.451,0,0,0,.5-.434.428.428,0,0,0-.486-.408q-1.637,0-3.273,0a.578.578,0,0,0-.295.083.377.377,0,0,0-.146.467.432.432,0,0,0,.455.29C173.971,254.855,174.508,254.853,175.045,254.853Z" transform="translate(-170.54 -248.216)" fill="#fff"/>
</svg>
