<?xml version="1.0" encoding="utf-8"?>
<!-- Generator: Adobe Illustrator 24.0.0, SVG Export Plug-In . SVG Version: 6.00 Build 0)  -->
<svg version="1.1" id="advertisement-content-icon" xmlns="http://www.w3.org/2000/svg" xmlns:xlink="http://www.w3.org/1999/xlink"
	 x="0px" y="0px" viewBox="0 0 27.6 32.3" style="enable-background:new 0 0 27.6 32.3;" xml:space="preserve">
<style type="text/css">
	.st0{fill:#2e7be6;}
</style>
<path class="st0" d="M4.9,13.7h7.6c0.3,0,0.5-0.2,0.5-0.5v-1.1c0-0.3-0.3-0.5-0.5-0.5H4.9c-0.3,0-0.5,0.2-0.5,0.5v1.1
	C4.4,13.5,4.6,13.7,4.9,13.7z M5.2,16.7h11.2c0.4,0,0.8-0.2,0.8-0.5v-1.1c0-0.3-0.4-0.5-0.8-0.5H5.2c-0.4,0-0.8,0.2-0.8,0.5v1.1
	C4.4,16.5,4.7,16.7,5.2,16.7z M26.5,21.1v-5.3c0-0.6-0.5-1.1-1.1-1.1c-0.3,0-0.5,0.1-0.7,0.2l-2.9,2.4c-1.5,1.2-3.3,1.8-5.2,1.8H9.9
	c-1.2,0-2.2,1-2.2,2.2l0,0v3.3c0,1.2,1,2.2,2.2,2.2h1.2c0,0.4-0.1,0.7-0.1,1.1c0,1.3,0.3,2.6,0.9,3.8c0.2,0.4,0.6,0.6,1,0.6h2.6
	c0.6,0,1.1-0.5,1.1-1.1c0-0.2-0.1-0.5-0.2-0.7c-0.6-0.8-0.9-1.7-0.9-2.7c0-0.4,0.1-0.7,0.2-1.1h1c1.9,0,3.7,0.6,5.2,1.8l2.9,2.4
	c0.5,0.4,1.2,0.3,1.6-0.2c0.2-0.2,0.2-0.4,0.2-0.7v-5.3c0.7-0.4,1.1-1.1,1.1-1.9C27.6,22.2,27.2,21.5,26.5,21.1z M24.3,27.9L23.1,27
	c-1.9-1.5-4.2-2.3-6.6-2.3v-3.3c2.4,0,4.7-0.8,6.6-2.3l1.1-0.9V27.9z M5.7,26.6h-3V2.8h9.1v5.9c0,0.8,0.6,1.4,1.4,1.4l0,0h5.9v6
	c0.4-0.2,0.8-0.4,1.1-0.7l1.6-1.3V7.6c0-0.7-0.3-1.4-0.8-1.9l-4.8-4.8c-0.4-0.5-1.1-0.8-1.8-0.8H2.7C1.2,0.1,0,1.3,0,2.8v23.7
	c0,1.5,1.2,2.7,2.7,2.7h5.9c0-0.1,0-0.1,0-0.2C7.3,28.7,6.3,27.8,5.7,26.6z M14.6,3.1l4.3,4.3h-4.3C14.6,7.4,14.6,3.1,14.6,3.1z"/>
</svg>
