<?xml version="1.0" encoding="utf-8"?>
<!-- Generator: Adobe Illustrator 24.0.0, SVG Export Plug-In . SVG Version: 6.00 Build 0)  -->
<svg version="1.1" id="Layer_1" xmlns="http://www.w3.org/2000/svg" xmlns:xlink="http://www.w3.org/1999/xlink" x="0px" y="0px"
	 viewBox="0 0 26.5 28.7" enable-background="new 0 0 26.5 28.7" xml:space="preserve" style="fill:#2e7be6;">
<path d="M13.5,9c-1.5,0-3,0.6-4,1.7c-1.1,1.1-1.7,2.5-1.7,4s0.6,3,1.7,4c1.1,1.1,2.5,1.7,4,1.7l0,0c3.1,0,5.7-2.6,5.7-5.7
	C19.2,11.5,16.6,9,13.5,9z M13.4,10.4L13.4,10.4c2.4,0,4.3,1.9,4.3,4.3S15.8,19,13.4,19c-2.3,0-4.3-1.9-4.3-4.3c0-1.1,0.4-2.2,1.2-3
	S12.3,10.4,13.4,10.4z M26.3,12.4c-1-6-6.2-10.6-12.3-10.8h-0.4l0,0c-6.7,0-12.3,5.1-13,11.6l0,0v15.5h1.2c2.8,0,5.1-2.3,5.1-5.1
	v-9.4C7,10.7,10,7.8,13.5,7.8h0.3c3,0.2,5.5,2.2,6.2,5.1l0.2,0.9h6.3L26.3,12.4z M21.4,12.4c-0.9-3.4-3.9-5.8-7.5-6h-0.4l0,0
	c-4.4,0-8.1,3.6-8.1,8v9.2c0,1.9-1.5,3.5-3.4,3.6V14.4C2.1,8.1,7.2,3,13.5,3H14c5.4,0.2,9.9,4.1,10.9,9.4H21.4z M13.6,27.3
	c-2.3,0-4.6-0.6-6.6-1.8c-0.4-0.2-0.5-0.7-0.3-1s0.7-0.5,1-0.3c1.8,1.1,4,1.7,6.1,1.6c4.9-0.2,9.1-3.7,10.3-8.4h-2.5
	c-0.6,2-1.9,3.7-3.7,4.8c-2,1.2-4.3,1.6-6.5,1c-1.8-0.4-3.4-1.4-4.6-2.9c-0.2-0.3-0.1-0.8,0.2-1c0.3-0.3,0.8-0.2,1,0.1
	c1,1.2,2.3,2,3.8,2.4c1.9,0.4,3.8,0.2,5.4-0.8s2.8-2.6,3.2-4.4l0.1-0.6H26l-0.1,0.9C25,22.8,20,27.2,14,27.4
	C13.9,27.3,13.7,27.3,13.6,27.3z M0.8,7.3C0.3,7.3,0,6.9,0,6.5V0h0.8c1.6,0,3.1,0.8,4,2.2C5,2.6,4.9,3,4.5,3.2
	C4.1,3.5,3.6,3.4,3.4,3C3,2.3,2.3,1.8,1.5,1.6v4.9C1.5,6.9,1.2,7.3,0.8,7.3z"/>
</svg>
