<svg id="shooting-icon" xmlns="http://www.w3.org/2000/svg" width="30.568" height="24.454" viewBox="0 0 30.568 24.454">
  <g id="Group_15" data-name="Group 15" transform="translate(0 0)">
    <path style="fill:#2e7be6;" id="photo-video-solid" d="M29.039,0H7.642A1.528,1.528,0,0,0,6.114,1.528V6.114h7.642V3.057h9.17V18.341h6.114a1.528,1.528,0,0,0,1.528-1.528V1.528A1.528,1.528,0,0,0,29.039,0ZM11.081,4.919a.43.43,0,0,1-.43.43H9.218a.43.43,0,0,1-.43-.43V3.487a.43.43,0,0,1,.43-.43h1.433a.43.43,0,0,1,.43.43Zm16.812,9.935a.43.43,0,0,1-.43.43H26.03a.43.43,0,0,1-.43-.43V13.421a.43.43,0,0,1,.43-.43h1.433a.43.43,0,0,1,.43.43Zm0-4.967a.43.43,0,0,1-.43.43H26.03a.43.43,0,0,1-.43-.43V8.454a.43.43,0,0,1,.43-.43h1.433a.43.43,0,0,1,.43.43Zm0-4.967a.43.43,0,0,1-.43.43H26.03a.43.43,0,0,1-.43-.43V3.487a.43.43,0,0,1,.43-.43h1.433a.43.43,0,0,1,.43.43ZM19.869,7.642H1.528A1.528,1.528,0,0,0,0,9.17V22.926a1.528,1.528,0,0,0,1.528,1.528H19.869A1.528,1.528,0,0,0,21.4,22.926V9.17A1.528,1.528,0,0,0,19.869,7.642ZM4.585,10.7a1.528,1.528,0,1,1-1.528,1.528A1.528,1.528,0,0,1,4.585,10.7ZM18.341,21.4H3.057V19.869l3.057-3.057,1.528,1.528,6.114-6.114,4.585,4.585Z"/>
    <rect id="Rectangle_8" data-name="Rectangle 8" width="18.761" height="14.432" transform="translate(1.086 8.529)"/>
  </g>
  <path id="video-solid" d="M7.5,64H1.066A1.066,1.066,0,0,0,0,65.066V71.5a1.066,1.066,0,0,0,1.066,1.066H7.5A1.066,1.066,0,0,0,8.562,71.5v-6.43A1.066,1.066,0,0,0,7.5,64Zm4.223.841L9.275,66.526v3.509l2.444,1.683a.715.715,0,0,0,1.124-.575V65.416A.715.715,0,0,0,11.719,64.841Z" transform="translate(4.119 -51.773)" fill="#fff"/>
</svg>
