<?xml version="1.0" encoding="utf-8"?>
<!-- Generator: Adobe Illustrator 24.0.0, SVG Export Plug-In . SVG Version: 6.00 Build 0)  -->
<svg version="1.1" id="social-media-design-icon" xmlns="http://www.w3.org/2000/svg" xmlns:xlink="http://www.w3.org/1999/xlink"
	 x="0px" y="0px" viewBox="0 0 35.6 31.9" style="enable-background:new 0 0 35.6 31.9;" xml:space="preserve">
<style type="text/css">
	.st0{fill:#2e7be6;}
</style>
<path class="st0" d="M20.9,18.8v3.5c0,0.3,0.2,0.5,0.5,0.5h0.9c0.2,0,0.4-0.1,0.5-0.3c0.6,0,1.1,0.6,2.6,0.6h0.3
	c1.1,0,1.6-0.6,1.6-1.4c0.2-0.3,0.3-0.6,0.3-1c0.1-0.3,0.2-0.6,0.1-0.9c0.1-0.2,0.2-0.5,0.2-0.7c0-0.7-0.6-1.2-1.2-1.2h-0.5
	c0.1-0.2,0.1-0.4,0.1-0.7c0-1.1-0.5-1.5-1.4-1.5s-0.8,1.4-1,1.6c-0.3,0.3-0.7,1-1,1.2h-1.4C21.1,18.3,20.9,18.5,20.9,18.8z M22.8,19
	H23c0.4,0,1-1,1.4-1.4s0.3-1.1,0.5-1.4c0.7,0,0.7,0.5,0.7,0.8c0,0.6-0.4,0.8-0.4,1.4h1.5c0.3,0,0.5,0.2,0.5,0.5s-0.2,0.5-0.3,0.5
	c0.2,0.3,0.2,0.7-0.1,1l0,0c0.2,0.3,0.1,0.6-0.2,0.8c0.1,0.7-0.3,1-0.8,1h-0.5c-1,0-1.7-0.5-2.5-0.5C22.8,21.7,22.8,19,22.8,19z
	 M21.9,21.4c0.2,0,0.3,0.2,0.3,0.3l0,0c0,0.2-0.2,0.3-0.3,0.3c-0.2,0-0.3-0.2-0.3-0.3C21.5,21.6,21.7,21.4,21.9,21.4z M33.9,0h-13
	c-0.9,0-1.6,0.7-1.6,1.6v4.9H11V1.2c0-0.6-0.5-1.1-1.1-1.1H1.1C0.5,0.1,0,0.6,0,1.2v6.6c0,0.6,0.5,1.1,1.1,1.1h2.4
	c-0.2,0.4-0.3,0.9-0.3,1.3V23l0,0c0,2,1.7,3.7,3.7,3.7H16v2.9h-4c-0.6,0-1.1,0.5-1.1,1.1s0.5,1.1,1.1,1.1h10.3
	c0.6,0,1.1-0.5,1.1-1.1s-0.5-1.1-1.1-1.1h-4v-2.9h9.1l0,0c2,0,3.7-1.7,3.7-3.7V13h2.8c0.9,0,1.6-0.7,1.6-1.6V1.6
	C35.6,0.7,34.8,0,33.9,0z M1.1,7.8V1.2h8.8v7.7L8.8,7.8H1.1z M28.9,23.1c0,0.8-0.6,1.4-1.4,1.4H17.2l0,0l0,0H7
	c-0.8,0-1.4-0.6-1.4-1.4V10.2c0-0.6,0.4-1.1,0.9-1.3h2.4l2.2,2.2V8.8h8.3v7.4l3.3-3.2H29v10.1H28.9z M33.9,11.4H22.6L20.9,13V1.6h13
	V11.4z M7.2,2.6C6,2.8,4.7,2.8,3.5,2.6C2.9,3.1,2.8,4,3.3,4.6c0,0,0,0,0.1,0.1L5,6.3c0.2,0.2,0.5,0.2,0.7,0l0,0l1.6-1.6
	C7.8,4.1,7.8,3.2,7.2,2.6C7.3,2.6,7.2,2.6,7.2,2.6z M7,4.3L7,4.3L7,4.3L5.4,6c0,0,0,0-0.1,0l0,0L3.7,4.3c-0.4-0.4-0.4-1,0-1.3l0,0
	c0.5-0.4,1-0.3,1.3,0l0.3,0.3L5.7,3C6,2.7,6.6,2.6,6.9,2.9C7.3,3.3,7.4,3.9,7,4.3z M23.8,5.4h1.6V7h-1.6V5.4z M30.4,5.5H32v1.6h-1.6
	V5.5z M27.2,5.4l1.5,0l0,1.7l-1.5,0L27.2,5.4z M18.2,14.1c0.4-0.6,0.1-1.4-0.5-1.8c-0.6-0.4-1.4-0.1-1.8,0.5H9.1
	c-0.1-0.2-0.3-0.4-0.5-0.5c-0.6-0.4-1.4-0.1-1.8,0.5s-0.1,1.4,0.5,1.8V20c-0.2,0.1-0.4,0.3-0.5,0.5c-0.4,0.6-0.1,1.4,0.5,1.8
	s1.4,0.1,1.8-0.5h6.8c0.1,0.2,0.3,0.4,0.5,0.5c0.6,0.4,1.4,0.1,1.8-0.5s0.1-1.4-0.5-1.8v-5.5C17.9,14.4,18,14.3,18.2,14.1z M16.4,20
	c-0.2,0.1-0.4,0.3-0.5,0.5H9.1C9,20.3,8.8,20.2,8.7,20v-5.5c0.2-0.1,0.4-0.3,0.5-0.5H16c0.1,0.2,0.3,0.4,0.5,0.5V20H16.4z
	 M13.2,17.3v-1.9l0,0c0-0.4-0.3-0.6-0.6-0.6H9.9l0,0c-0.4,0-0.6,0.3-0.6,0.6v1.9l0,0c0,0.4,0.3,0.6,0.6,0.6h2.6
	C12.9,17.9,13.2,17.6,13.2,17.3z M15.1,16.6h-1.3v0.6c0,0.7-0.6,1.3-1.3,1.3h-0.6v0.6l0,0c0,0.4,0.3,0.6,0.6,0.6h2.6l0,0
	c0.4,0,0.6-0.3,0.6-0.6v-1.9l0,0C15.7,16.9,15.5,16.6,15.1,16.6z"/>
</svg>
