<?xml version="1.0" encoding="utf-8"?>
<!-- Generator: Adobe Illustrator 24.0.0, SVG Export Plug-In . SVG Version: 6.00 Build 0)  -->
<svg version="1.1" id="Layer_1" xmlns="http://www.w3.org/2000/svg" xmlns:xlink="http://www.w3.org/1999/xlink" x="0px" y="0px"
	 viewBox="0 0 46.1 24.5" style="enable-background:new 0 0 46.1 24.5;" xml:space="preserve">
<path style="fill:#2e7be6;" d="M44.1,4H27.7c-1.1,0-2,0.9-2,2v18.4l4.1-4.1h14.3c1.1,0,2-0.9,2-2V6C46.1,4.9,45.2,4,44.1,4z M44.1,18.3H29.8l-2,2V6h16.4
	L44.1,18.3L44.1,18.3z M2.4,0H22c1.3,0,2.4,1.1,2.4,2.4v22l-4.9-4.9H2.4c-1.3,0-2.4-1.1-2.4-2.4V2.4C0,1.1,1.1,0,2.4,0z M2.4,17.1
	h17.1l2.4,2.4V2.4H2.3L2.4,17.1L2.4,17.1z M39.2,10.2L39.2,10.2c0-0.1,0-0.1,0.2-0.1h1.5V8.7h-3.8V7.3h-1.4v0.1c0,0.1,0,0.2,0,0.4
	c0,0.2,0,0.5,0,0.7c0,0.1,0,0.1,0,0.2c0,0-0.1,0-0.2,0c-0.7,0-1.5,0-2.2,0H32v1.4h1.7c0.3,1.4,0.9,2.8,1.8,3.9l-0.1,0.1
	c-0.1,0.1-0.3,0.2-0.4,0.3c-0.9,0.6-1.8,1.1-2.8,1.4h-0.1l0.4,1.3h0.1c1.4-0.4,2.8-1.1,3.9-2.1c1.1,0.9,2.4,1.6,3.8,2h0.1l0.4-1.3
	h-0.1c-1.2-0.3-2.3-0.9-3.2-1.7l0,0C38.3,12.9,38.9,11.6,39.2,10.2z M35.1,10.1h2.7c-0.2,1-0.7,2-1.3,2.8
	C35.8,12.1,35.3,11.1,35.1,10.1z M14.8,12.5h-4.5l-0.7,2.1H7.2l4-11.2h2.6l4,11.2h-2.4L14.8,12.5z M14.1,10.7L12.5,6l-1.6,4.7H14.1z
	"/>
</svg>
