<svg xmlns="http://www.w3.org/2000/svg" xmlns:xlink="http://www.w3.org/1999/xlink" width="131" height="69" viewBox="0 0 131 69">
  <defs>
    <clipPath id="clip-path">
      <rect id="Rectangle_857" data-name="Rectangle 857" width="131" height="69" transform="translate(0 0)" fill="#fff"/>
    </clipPath>
    <clipPath id="clip-path-2">
      <rect id="Rectangle_856" data-name="Rectangle 856" width="510.225" height="176.754" rx="5.684" fill="none"/>
    </clipPath>
    <linearGradient id="linear-gradient" x1="1029.327" y1="0.578" x2="1027.984" y2="0.355" gradientUnits="objectBoundingBox">
      <stop offset="0.473" stop-color="#fff"/>
      <stop offset="0.605" stop-color="#fcfcfc"/>
      <stop offset="0.667" stop-color="#f5f5f5"/>
      <stop offset="0.716" stop-color="#e8e8e8"/>
      <stop offset="0.756" stop-color="#d5d5d5"/>
      <stop offset="0.793" stop-color="#bdbdbd"/>
      <stop offset="0.825" stop-color="#a0a0a0"/>
      <stop offset="0.856" stop-color="#7d7d7d"/>
      <stop offset="0.884" stop-color="#545454"/>
      <stop offset="0.91" stop-color="#272727"/>
      <stop offset="0.929"/>
    </linearGradient>
    <linearGradient id="linear-gradient-2" y1="0.5" x2="1" y2="0.5" gradientUnits="objectBoundingBox">
      <stop offset="0" stop-color="#0e4775"/>
      <stop offset="1" stop-color="#115598"/>
    </linearGradient>
    <filter id="Path_2281" x="82.264" y="52.264" width="106.604" height="106.604" filterUnits="userSpaceOnUse">
      <feOffset dy="10" input="SourceAlpha"/>
      <feGaussianBlur stdDeviation="7.5" result="blur"/>
      <feFlood flood-color="#115598" flood-opacity="0.161"/>
      <feComposite operator="in" in2="blur"/>
      <feComposite in="SourceGraphic"/>
    </filter>
  </defs>
  <g id="Mask_Group_8" data-name="Mask Group 8" transform="translate(0 0)" clip-path="url(#clip-path)">
    <g id="Group_3831" data-name="Group 3831" transform="translate(-288.296 -42.23)">
      <g id="Group_3826" data-name="Group 3826" transform="translate(0)">
        <g id="Group_3825" data-name="Group 3825" transform="translate(0)" clip-path="url(#clip-path-2)">
          <g id="Group_3824" data-name="Group 3824" transform="translate(190.95 -30.331)">
            <path id="Path_2189" data-name="Path 2189" d="M1770.3,224.487c-5.587-15.573-14.383-20.312-22.748-30.3-10.219-12.2-17.111-21.068-14.458-36.76,4.336-25.641,6.191-89.591-61.693-81.232-24.33,3-43.557,21.642-57.545,40.254-11.9,15.836-33.312,17.233-50.544,20.926-21.173,4.537-42.742,11.388-62.331,21.429-40.346,20.679-52.4,50.406-50.751,88.442.5,11.49,2.124,29.591,21.535,50.772,26.2,28.587,64.272,32.415,110.095,19.286,10.489-3,20.4-7.718,30.722-11.266a144.9,144.9,0,0,1,33.155-7.2c26.319-2.545,53.6,2.058,78.847-5.8a83.2,83.2,0,0,0,35.265-21.871C1771.908,258.534,1776.2,240.925,1770.3,224.487Z" transform="translate(-1362.643 -41.769)" fill="#e2f6ff"/>
            <g id="Group_3663" data-name="Group 3663" transform="translate(0 179.283)">
              <path id="Path_2190" data-name="Path 2190" d="M1523.344,218.214c0,3.637,36.856,6.587,82.327,6.587s82.32-2.95,82.32-6.587-36.857-6.587-82.32-6.587S1523.344,214.576,1523.344,218.214Z" transform="translate(-1523.344 -211.627)" fill="#9fd4ff"/>
            </g>
            <rect id="Rectangle_812" data-name="Rectangle 812" width="45.679" height="12.288" transform="translate(74.35 166.904)" fill="#0d4c7f"/>
            <path id="Rectangle_813" data-name="Rectangle 813" d="M5.391,0H79.556a5.391,5.391,0,0,1,5.391,5.391V7.747a0,0,0,0,1,0,0H0a0,0,0,0,1,0,0V5.391A5.391,5.391,0,0,1,5.391,0Z" transform="translate(54.716 178.123)" fill="#2386d8"/>
            <g id="Group_3775" data-name="Group 3775" transform="translate(28.409 156.851)">
              <path id="Path_2194" data-name="Path 2194" d="M1546.33,196.073l-3.217,33.327,31.606.007-3.057-33.39Z" transform="translate(-1543.114 -196.017)" fill="#e9640b"/>
              <g id="Group_3773" data-name="Group 3773" transform="translate(8.728 2.076)">
                <g id="Group_3771" data-name="Group 3771" transform="translate(0 0.026)">
                  <path id="Path_2195" data-name="Path 2195" d="M1549.187,198.485h0a1.108,1.108,0,0,1,1.184-1h0a1.016,1.016,0,1,1,0,2h0A1.107,1.107,0,0,1,1549.187,198.485Zm1.184-.624a.641.641,0,1,0,0,1.24h0a.641.641,0,1,0,0-1.24Zm-1,.622h0Z" transform="translate(-1549.187 -197.479)" fill="#5851bc"/>
                </g>
                <g id="Group_3772" data-name="Group 3772" transform="translate(11.781)">
                  <path id="Path_2196" data-name="Path 2196" d="M1557.385,198.465h0a.916.916,0,0,1,.277-.65,1.274,1.274,0,0,1,.9-.355h0a1.105,1.105,0,0,1,1.184,1,.92.92,0,0,1-.358.721,1.291,1.291,0,0,1-.823.283h0A1.107,1.107,0,0,1,1557.385,198.465Zm1.182-.622a.887.887,0,0,0-.634.244.527.527,0,0,0-.166.376h0a.731.731,0,0,0,.8.618h0a.923.923,0,0,0,.582-.2.554.554,0,0,0,.218-.425.731.731,0,0,0-.8-.618Z" transform="translate(-1557.385 -197.461)" fill="#5851bc"/>
                </g>
              </g>
              <g id="Group_3774" data-name="Group 3774" transform="translate(9.478 2.694)">
                <path id="Path_2197" data-name="Path 2197" d="M1555.686,205.588c.11,0,.223,0,.336-.006a6.352,6.352,0,0,0,4.906-2.072,7.365,7.365,0,0,0,1.379-5.29.383.383,0,0,0-.758.108,6.7,6.7,0,0,1-1.21,4.7,5.64,5.64,0,0,1-4.343,1.793,5.136,5.136,0,0,1-4.2-1.466c-1.687-1.878-1.272-4.965-1.268-5a.383.383,0,0,0-.759-.109c-.02.141-.471,3.465,1.453,5.613A5.707,5.707,0,0,0,1555.686,205.588Z" transform="translate(-1549.709 -197.891)" fill="#5851bc"/>
              </g>
            </g>
            <g id="Group_3781" data-name="Group 3781" transform="translate(199.215 144.552)">
              <path id="Path_2198" data-name="Path 2198" d="M1708.574,214.787h-46.6l5.582-4.129V190.5a3.045,3.045,0,0,1,3.045-3.045h37.973a3.045,3.045,0,0,1,3.045,3.045v21.239A3.045,3.045,0,0,1,1708.574,214.787Z" transform="translate(-1661.974 -187.458)" fill="#8ec8ef"/>
              <g id="Group_3780" data-name="Group 3780" transform="translate(9.249 3.931)">
                <rect id="Rectangle_845" data-name="Rectangle 845" width="21.297" height="2.038" transform="translate(15.051)" fill="#fff" opacity="0.45"/>
                <rect id="Rectangle_846" data-name="Rectangle 846" width="21.297" height="2.038" transform="translate(15.051 3.044)" fill="#fff" opacity="0.45"/>
                <rect id="Rectangle_847" data-name="Rectangle 847" width="21.297" height="2.038" transform="translate(15.051 6.088)" fill="#fff" opacity="0.45"/>
                <rect id="Rectangle_848" data-name="Rectangle 848" width="21.297" height="2.038" transform="translate(15.051 9.055)" fill="#fff" opacity="0.45"/>
                <rect id="Rectangle_849" data-name="Rectangle 849" width="14.852" height="2.038" transform="translate(15.051 12.603)" fill="#fff" opacity="0.45"/>
                <g id="Group_3779" data-name="Group 3779">
                  <rect id="Rectangle_850" data-name="Rectangle 850" width="13.378" height="15.642" rx="3.385" fill="#5cb8ea"/>
                  <rect id="Rectangle_851" data-name="Rectangle 851" width="13.378" height="1.679" transform="translate(0 17.59)" fill="#fff" opacity="0.45"/>
                  <g id="Group_3778" data-name="Group 3778" transform="translate(1.614 3.503)">
                    <path id="Path_2199" data-name="Path 2199" d="M1675.927,198.674h-4.854a.606.606,0,0,1-.585-.447l-.933-3.447a.606.606,0,0,1,.584-.765h6.722a.606.606,0,0,1,.585.765l-.934,3.447A.6.6,0,0,1,1675.927,198.674Z" transform="translate(-1669.534 -192.026)" fill="#fff"/>
                    <g id="Group_3776" data-name="Group 3776" transform="translate(1.282)">
                      <path id="Path_2200" data-name="Path 2200" d="M1676.394,200.055h-5.847a.12.12,0,1,1,0-.24h5.755l2.035-7.1a.121.121,0,0,1,.116-.088h1.272a.121.121,0,0,1,0,.241h-1.181l-2.035,7.1A.119.119,0,0,1,1676.394,200.055Z" transform="translate(-1670.426 -192.631)" fill="#fff"/>
                    </g>
                    <g id="Group_3777" data-name="Group 3777" transform="translate(0.884 7.668)">
                      <path id="Path_2201" data-name="Path 2201" d="M1671.563,198.674a.707.707,0,1,1-.707-.707A.707.707,0,0,1,1671.563,198.674Z" transform="translate(-1670.149 -197.967)" fill="#fff"/>
                      <ellipse id="Ellipse_283" data-name="Ellipse 283" cx="0.707" cy="0.707" rx="0.707" ry="0.707" transform="translate(5.14)" fill="#fff"/>
                    </g>
                  </g>
                </g>
              </g>
            </g>
            <g id="Group_3786" data-name="Group 3786" transform="translate(108.508 41.445)" opacity="0.3">
              <g id="Group_3783" data-name="Group 3783">
                <g id="Group_3782" data-name="Group 3782" transform="translate(7.768 1.517)">
                  <path id="Path_2202" data-name="Path 2202" d="M1605.121,119.281l2.329-2.517-3.192.625" transform="translate(-1604.258 -116.764)" fill="#3939d3"/>
                </g>
                <path id="Path_2203" data-name="Path 2203" d="M1598.853,120.327a4.9,4.9,0,1,0,4.895-4.619A4.763,4.763,0,0,0,1598.853,120.327Z" transform="translate(-1598.853 -115.708)" fill="#8ec8ef"/>
              </g>
              <g id="Group_3785" data-name="Group 3785" transform="translate(2.151 1.517)">
                <g id="Group_3784" data-name="Group 3784" transform="translate(1.77)">
                  <path id="Path_2204" data-name="Path 2204" d="M1601.617,122.077c.964.017,1.94.032,2.825-.033.28-.02.523-.486.182-.632a.631.631,0,0,0,.351-.319.318.318,0,0,0-.17-.415c.333.086.466-.467.206-.647a.823.823,0,0,0,.282-.471.483.483,0,0,0-.2-.489.708.708,0,0,0-.346-.063l-1.2-.009a3.008,3.008,0,0,0-.178-1.944c-.094-.174-.353-.381-.557-.249s-.14.437-.129.632a2.235,2.235,0,0,1-1.094,2.019S1601.627,121.192,1601.617,122.077Z" transform="translate(-1601.581 -116.764)" fill="#fefefe"/>
                </g>
                <rect id="Rectangle_852" data-name="Rectangle 852" width="1.456" height="2.619" transform="translate(0 2.693)" fill="#fefefe"/>
              </g>
            </g>
            <g id="Group_3787" data-name="Group 3787" transform="translate(127.062 0)" opacity="0.3">
              <path id="Path_2205" data-name="Path 2205" d="M1624.627,98.587a7.2,7.2,0,1,0-1.641,1.51l2.8,1.492Z" transform="translate(-1611.764 -86.867)" fill="#8ec8ef"/>
              <path id="Path_2206" data-name="Path 2206" d="M1614.831,90.672a1.763,1.763,0,0,1,2.493.026l.45.46.461-.456a1.763,1.763,0,0,1,2.475,2.512l-1.716,1.69-.008.012a1.761,1.761,0,0,1-2.493-.027l-1.689-1.723A1.764,1.764,0,0,1,1614.831,90.672Z" transform="translate(-1610.656 -85.424)" fill="#fff"/>
            </g>
            <g id="Group_3823" data-name="Group 3823" transform="translate(105.527 76.662)">
              <path id="Path_2207" data-name="Path 2207" d="M1454.335,225.806c0,3.426,37.5,6.2,83.763,6.2s83.763-2.778,83.763-6.2-37.5-6.2-83.763-6.2S1454.335,222.382,1454.335,225.806Z" transform="translate(-1454.335 -101.773)" fill="#9fd4ff"/>
              <g id="Group_3822" data-name="Group 3822" transform="translate(8.506 0)">
                <path id="Path_2219" data-name="Path 2219" d="M1511.081,160.292c.086.375.166.808.235,1.3L1510,184.519l19.792-.719-.593-27.915-13.013-4.8S1508.852,150.6,1511.081,160.292Z" transform="translate(-1457.056 -139.463)" fill="#0d4c7f"/>
                <path id="Path_2220" data-name="Path 2220" d="M1562.282,225.735c0-.143,0-.282,0-.425,0-34.431-18.234-62.341-40.725-62.341s-40.723,27.91-40.723,62.341c0,.143,0,.282,0,.425Z" transform="translate(-1444.349 -132.924)" fill="#fff"/>
                <path id="Path_2221" data-name="Path 2221" d="M1527.3,149.378l-6.648,2.46a3.429,3.429,0,0,0-1.154,5.718l5.69,5.324Z" transform="translate(-1467.591 -140.4)" fill="#115598"/>
                <path id="Path_2222" data-name="Path 2222" d="M1510.008,189.776l15.33-11.626-8.512-28.467-17.077,3.75Z" transform="translate(-1436.711 -140.232)" fill="#f88f62"/>
                <path id="Path_2223" data-name="Path 2223" d="M1505.072,155.046v.432a10.837,10.837,0,0,0,.256,2.155,11.257,11.257,0,0,0,12.231,8.753c.38-.045.76-.115,1.139-.2a11.23,11.23,0,0,0-4.813-21.938,11.312,11.312,0,0,0-3.7,1.545l-.583.406-.089.062a11.251,11.251,0,0,0-4.427,8.778Z" transform="translate(-1447.146 -143.363)" fill="#ffa669"/>
                <path id="Path_2224" data-name="Path 2224" d="M1509.259,165.08a2.63,2.63,0,0,0,.019.388,5.516,5.516,0,0,0,6.526,4.92l8.639-1.889.3-6.509.522-11.385-1.607.081-14.352.724v.432Z" transform="translate(-1451.377 -139.726)" fill="#ffa669"/>
                <path id="Path_2225" data-name="Path 2225" d="M1510.261,168.076a2.612,2.612,0,0,0,.019.388c1.713,2.386,3.948,3.745,6.826,2.72a10,10,0,0,0,5.687-5.439c1.987-4.2,2.014-9.468,1.865-12.064-.045-1-.124-1.6-.124-1.6l-9.114-6.924-.583.406-.088.062a11.25,11.25,0,0,0-4.427,8.778l-.016,0v.432Z" transform="translate(-1452.38 -142.722)" fill="#ffa669"/>
                <path id="Path_2226" data-name="Path 2226" d="M1516.612,162.689a.441.441,0,0,0,.4-.479l.273-1.428-1.6.093.453,1.415A.439.439,0,0,0,1516.612,162.689Z" transform="translate(-1453.353 -134.127)" fill="#2c2334"/>
                <path id="Path_2227" data-name="Path 2227" d="M1521.456,159.615h-6.875s-.349-1.347,1.835-1.652S1521.456,159.615,1521.456,159.615Z" transform="translate(-1455.789 -135.696)" fill="#2c2334"/>
                <path id="Path_2228" data-name="Path 2228" d="M1516.256,161.125a1.943,1.943,0,0,0,2.257-.787,2.045,2.045,0,0,0,.348-1.091h-3.646A1.853,1.853,0,0,0,1516.256,161.125Z" transform="translate(-1454.197 -134.972)" fill="#2c2334"/>
                <path id="Path_2229" data-name="Path 2229" d="M1503.509,153.023h8.612c3.523-.05,3.754,5.465,8.144,7.381a16.442,16.442,0,0,0,7.988,1.38l-2.683-8.965a11.228,11.228,0,0,0-13.372-8.564A11.39,11.39,0,0,0,1503.509,153.023Z" transform="translate(-1445.456 -143.363)" fill="#2c2334"/>
                <path id="Path_2230" data-name="Path 2230" d="M1508.9,163.417l6.675-1.466-5.616,5.218Z" transform="translate(-1441.143 -133.484)" fill="#2c2334"/>
                <ellipse id="Ellipse_284" data-name="Ellipse 284" cx="3.681" cy="3.681" rx="3.681" ry="3.681" transform="translate(72.151 12.742)" fill="#ffa669"/>
                <g id="Group_3795" data-name="Group 3795" transform="translate(59.129 18.663)">
                  <path id="Path_2231" data-name="Path 2231" d="M1517.692,158.809h1.685v-.6h-1.086v-2.583h-.6Z" transform="translate(-1517.692 -155.626)" fill="#2c2334"/>
                </g>
                <path id="Path_2232" data-name="Path 2232" d="M1528.436,155.447h-24.184s-.8-11.861,11.3-11.861C1527.357,143.586,1528.436,155.447,1528.436,155.447Z" transform="translate(-1446.774 -143.586)" fill="#115598"/>
                <path id="Path_2233" data-name="Path 2233" d="M1524.425,150.993s-6.076,3.595-9.819,3.593-2.276-3.779-2.276-3.779Z" transform="translate(-1454.859 -139.614)" fill="#115598"/>
                <path id="Path_2234" data-name="Path 2234" d="M1500.922,149.378l6.648,2.46a3.428,3.428,0,0,1,1.151,5.718l-5.688,5.324Z" transform="translate(-1423.002 -140.4)" fill="#115598"/>
                <rect id="Rectangle_853" data-name="Rectangle 853" width="26.487" height="3.801" rx="1.226" transform="translate(55.799 7.078)" fill="#2c2334"/>
                <path id="Path_2235" data-name="Path 2235" d="M1514.1,154.486a1.98,1.98,0,0,1,.843-.707c.7-.291,1.237.034,2.61.217,1.273.171,1.776.02,1.8.136.039.237-2.033,1.145-4.214.679A5.657,5.657,0,0,1,1514.1,154.486Z" transform="translate(-1452.966 -138.043)" fill="#2c2334"/>
                <path id="Path_2236" data-name="Path 2236" d="M1515.958,154.9a3.485,3.485,0,0,0,.04,1.868.987.987,0,0,0,.842.741.956.956,0,0,0,.646-.326,2.4,2.4,0,0,0,.431-2.21,2.123,2.123,0,0,0-1.959-.073Z" transform="translate(-1454.337 -137.476)" fill="#2c2334"/>
                <g id="Group_3801" data-name="Group 3801" transform="translate(55.198 14.781)">
                  <g id="Group_3796" data-name="Group 3796" transform="translate(9.487 0.092)">
                    <path id="Path_2237" data-name="Path 2237" d="M1510.257,156.353l7.541-2.732.179-.44-7.841,2.783Z" transform="translate(-1510.136 -153.181)" fill="url(#linear-gradient)"/>
                  </g>
                  <g id="Group_3799" data-name="Group 3799" transform="translate(0)">
                    <g id="Group_3797" data-name="Group 3797" transform="translate(4.926)">
                      <path id="Path_2238" data-name="Path 2238" d="M1517.416,159.829c1.381,0,2.5-1.51,2.5-3.359s-1.134-3.351-2.515-3.348-2.5,1.51-2.5,3.359S1516.034,159.832,1517.416,159.829Zm-.014-6.206c1.105,0,2.007,1.276,2.01,2.849s-.893,2.854-2,2.857-2.007-1.276-2.012-2.847S1516.3,153.626,1517.4,153.623Z" transform="translate(-1514.903 -153.122)" fill="#fff"/>
                    </g>
                    <g id="Group_3798" data-name="Group 3798" transform="translate(0 0.059)">
                      <path id="Path_2239" data-name="Path 2239" d="M1520.832,159.774c.948,0,1.69-1.457,1.685-3.311s-.751-3.3-1.7-3.3-1.691,1.457-1.686,3.311S1519.881,159.776,1520.832,159.774Zm-.014-6.206c.62,0,1.288,1.163,1.291,2.9s-.657,2.9-1.279,2.9-1.29-1.163-1.293-2.9S1520.2,153.569,1520.818,153.568Z" transform="translate(-1519.13 -153.16)" fill="#fff"/>
                    </g>
                  </g>
                  <g id="Group_3800" data-name="Group 3800" transform="translate(3.183 3.155)">
                    <rect id="Rectangle_854" data-name="Rectangle 854" width="0.408" height="1.816" transform="translate(0.001 0.411) rotate(-90.108)" fill="#fff"/>
                  </g>
                </g>
                <g id="Group_3803" data-name="Group 3803" transform="translate(70.092 32.832)">
                  <g id="Group_3802" data-name="Group 3802" transform="translate(0 12.477)">
                    <rect id="Rectangle_855" data-name="Rectangle 855" width="1.727" height="56.764" transform="translate(1.724 56.764) rotate(-176.531)" fill="#2c2334"/>
                  </g>
                  <path id="Path_2240" data-name="Path 2240" d="M1499.55,173.3l1-.564,2.678,6.906-.551-8.11,11.952-6.765,3.239,7.989-15.779,9.525Z" transform="translate(-1499.021 -164.767)" fill="#fff"/>
                </g>
                <g id="Group_3816" data-name="Group 3816" transform="translate(15.501 84.65)">
                  <g id="Group_3809" data-name="Group 3809" transform="translate(0 1.099)">
                    <g id="Group_3807" data-name="Group 3807" transform="translate(0 7.079)">
                      <path id="Path_2241" data-name="Path 2241" d="M1509.078,236.613c.476-1.347,25.138-32.562,26.791-33.138.188-.076,10.76,7.783,10.76,7.783.43.6,20.915-3.284,20.915-3.284l-.309,24.607-37.136-1.562s-5.079,2.846-9.72,5.152l-.015,0a55.241,55.241,0,0,1-6.1,2.8C1512.4,239.414,1508.593,237.952,1509.078,236.613Z" transform="translate(-1508.814 -203.473)" fill="#c36358"/>
                      <path id="Path_2242" data-name="Path 2242" d="M1524.459,238.974a54.359,54.359,0,0,0,6.1-2.8h.017c4.638-2.308,9.719-5.157,9.719-5.157l8.265.35,13.378-20.619c-2.85.445-4.975.7-5.113.51,0,0-10.567-7.859-10.758-7.78-1.652.575-26.313,31.79-26.792,33.135S1522.59,239.415,1524.459,238.974Z" transform="translate(-1519.009 -203.472)" fill="#fff"/>
                      <g id="Group_3806" data-name="Group 3806">
                        <path id="Path_2243" data-name="Path 2243" d="M1522.573,236.65c.5-1.38,25.272-32.574,26.968-33.166.643-.228,5.824,3.123,10.8,7.773l-16,20.092s-14.522,7.31-16.452,7.761S1522.072,238.03,1522.573,236.65Z" transform="translate(-1522.529 -203.473)" fill="#58595b"/>
                        <g id="Group_3805" data-name="Group 3805" transform="translate(1.525 2.069)">
                          <g id="Group_3804" data-name="Group 3804">
                            <path id="Path_2244" data-name="Path 2244" d="M1529.908,236.46c4.281-5.128,21.064-26.211,24.9-31.605.031-.043,0-.067-.032-.025-4.354,4.988-20.965,26.207-24.957,31.562C1529.738,236.5,1529.818,236.567,1529.908,236.46Z" transform="translate(-1529.787 -204.808)" fill="#1a2e35"/>
                            <path id="Path_2245" data-name="Path 2245" d="M1541.613,228.417a5.361,5.361,0,0,0,1.207-4.142,5.192,5.192,0,0,0-1.864-3.385c-.033-.023-.078.032-.05.064a6.2,6.2,0,0,1,.64,7.412A.042.042,0,0,0,1541.613,228.417Z" transform="translate(-1535.054 -195.965)" fill="#1a2e35"/>
                            <path id="Path_2246" data-name="Path 2246" d="M1532.783,225.017c1.691-2.069,2.879-5.083,2.2-7.742-.026-.1-.172-.065-.189.023a36.957,36.957,0,0,1-2.3,7.55A.168.168,0,0,0,1532.783,225.017Z" transform="translate(-1514.313 -197.985)" fill="#1a2e35"/>
                            <path id="Path_2247" data-name="Path 2247" d="M1534.016,225.737c1.692-2.071,2.879-5.083,2.2-7.744-.026-.1-.172-.064-.19.025a36.872,36.872,0,0,1-2.3,7.55A.168.168,0,0,0,1534.016,225.737Z" transform="translate(-1517.46 -197.589)" fill="#1a2e35"/>
                            <path id="Path_2248" data-name="Path 2248" d="M1535.249,226.455c1.691-2.069,2.88-5.083,2.2-7.742-.026-.1-.172-.064-.189.023a37.046,37.046,0,0,1-2.3,7.552A.167.167,0,0,0,1535.249,226.455Z" transform="translate(-1520.607 -197.193)" fill="#1a2e35"/>
                            <path id="Path_2249" data-name="Path 2249" d="M1536.483,227.176c1.691-2.069,2.88-5.083,2.2-7.743-.027-.1-.172-.065-.191.023a36.937,36.937,0,0,1-2.3,7.55A.168.168,0,0,0,1536.483,227.176Z" transform="translate(-1523.754 -196.798)" fill="#1a2e35"/>
                            <path id="Path_2250" data-name="Path 2250" d="M1531.113,209.578c1.859-2.353-1.8-5.245-3.658-2.888S1529.252,211.935,1531.113,209.578Z" transform="translate(-1502.178 -204.254)" fill="#1a2e35"/>
                          </g>
                          <path id="Path_2251" data-name="Path 2251" d="M1530.759,227.487c-.56-2.286-.11-4.735.042-7.045a.326.326,0,0,1,.468-.242.07.07,0,0,1,.112-.017,14.016,14.016,0,0,1,3.841,6.151c.394,1.378.192,3.395-1.527,3.756C1532.07,230.432,1531.086,228.822,1530.759,227.487Zm1.657,1.474c2.443,1.6,2.325-1.843,2-2.847a15.158,15.158,0,0,0-.805-1.885,41.914,41.914,0,0,0-2.165-3.643c0,1.139-.108,2.266-.155,3.4C1531.229,225.345,1531.069,228.079,1532.416,228.961Z" transform="translate(-1511.438 -196.362)" fill="#1a2e35"/>
                          <path id="Path_2252" data-name="Path 2252" d="M1535.8,216.273c1.235,1.249.293,3.044-.794,3.977a14.018,14.018,0,0,1-6.6,3.018c-.056.009-.082-.031-.082-.076a.324.324,0,0,1-.257-.459c1.143-2.012,2.117-4.3,3.844-5.9C1532.92,215.9,1534.625,215.092,1535.8,216.273Zm-5.371,3.765c-.586.976-1.123,1.975-1.746,2.928a42.094,42.094,0,0,0,3.813-1.848,14.983,14.983,0,0,0,1.71-1.131c.829-.656,2.824-3.464-.1-3.474C1532.5,216.507,1531.123,218.876,1530.424,220.039Z" transform="translate(-1508.615 -198.826)" fill="#1a2e35"/>
                        </g>
                      </g>
                    </g>
                    <g id="Group_3808" data-name="Group 3808" transform="translate(29.76)">
                      <path id="Path_2253" data-name="Path 2253" d="M1494.508,204.632l16.75-1.321s24.189-7.012,38.168-3.342c16.028,4.208,18.289,22.935,1.994,30.44-16.119,7.423-87.089,4.687-87.089,4.687l15.213-22.533s23.365-5.489,43.822-4.373l-28.963,3.334Z" transform="translate(-1464.33 -198.906)" fill="#fff"/>
                      <path id="Path_2254" data-name="Path 2254" d="M1483.143,206.515c2.492-.411,5.013-.614,7.526-.846,2.535-.237,5.075-.42,7.615-.58a151.352,151.352,0,0,1,15.234-.231c.476.019.95.046,1.426.074.1-.033.209-.048.313-.071.245-.053.488-.108.736-.15.459-.079.922-.136,1.386-.2.963-.127,1.928-.209,2.888-.367a.046.046,0,0,1,.02.09c-.964.194-1.914.451-2.881.642-.277.054-.556.109-.835.158,1.86.136,3.715.319,5.569.526.059.008.059.1,0,.093-2.525-.2-5.072-.273-7.6-.282-2.516-.011-5.03-.008-7.544.084-5.084.186-10.168.536-15.239.959-2.844.239-5.7.532-8.552.59C1482.924,207.012,1482.862,206.561,1483.143,206.515Z" transform="translate(-1452.797 -196.024)" fill="#1a2e35"/>
                      <path id="Path_2255" data-name="Path 2255" d="M1514.113,229.914c.939-1.435,1.745-2.97,2.609-4.452s1.731-2.971,2.6-4.455c1.731-2.961,7.935-12.912,8.541-13.6.039-.043.115.009.095.061-.3.773-4.177,7.367-5.07,8.837-1.784,2.939-3.653,5.817-5.5,8.717-.527.829-1.071,1.645-1.606,2.469s-1.1,1.631-1.592,2.477C1514.16,230.015,1514.079,229.964,1514.113,229.914Z" transform="translate(-1506.846 -194.241)" fill="#1a2e35"/>
                    </g>
                  </g>
                  <g id="Group_3815" data-name="Group 3815" transform="translate(0.046)">
                    <g id="Group_3813" data-name="Group 3813" transform="translate(62.399 11.483)">
                      <path id="Path_2256" data-name="Path 2256" d="M1527.166,239.977c-.412-1.367-23.57-33.714-25.193-34.369-.184-.085-11.115,7.265-11.115,7.265-.459.578-20.737-4.272-20.737-4.272l-.857,24.595,37.169.2s4.94,3.083,9.464,5.608l.017,0a55.768,55.768,0,0,0,5.96,3.089C1523.719,242.619,1527.588,241.338,1527.166,239.977Z" transform="translate(-1469.264 -205.604)" fill="#ffa669"/>
                      <path id="Path_2257" data-name="Path 2257" d="M1505.365,242.091a53.607,53.607,0,0,1-5.958-3.089c-.006.006-.012,0-.019,0-4.523-2.525-9.463-5.611-9.463-5.611l-8.271-.042-12.389-21.228c2.827.578,4.938.936,5.086.75,0,0,10.926-7.35,11.114-7.262,1.623.653,24.779,33,25.193,34.366S1507.211,242.62,1505.365,242.091Z" transform="translate(-1452.755 -205.604)" fill="#fff"/>
                      <g id="Group_3812" data-name="Group 3812" transform="translate(21.593)">
                        <path id="Path_2258" data-name="Path 2258" d="M1505.65,240.027c-.435-1.4-23.7-33.734-25.368-34.406-.631-.257-5.965,2.844-11.159,7.254l15.025,20.826s14.16,7.99,16.066,8.531S1506.084,241.428,1505.65,240.027Z" transform="translate(-1469.123 -205.605)" fill="#58595b"/>
                        <g id="Group_3811" data-name="Group 3811" transform="translate(6.916 2.093)">
                          <g id="Group_3810" data-name="Group 3810">
                            <path id="Path_2259" data-name="Path 2259" d="M1493.509,239.75c-4.033-5.323-19.8-27.178-23.381-32.748-.029-.045,0-.067.034-.023,4.114,5.19,19.7,27.171,23.435,32.708C1493.676,239.8,1493.594,239.864,1493.509,239.75Z" transform="translate(-1465.526 -206.956)" fill="#1a2e35"/>
                            <path id="Path_2260" data-name="Path 2260" d="M1474.777,231.092a5.363,5.363,0,0,1-1.01-4.194,5.194,5.194,0,0,1,2.023-3.294c.032-.022.076.037.047.065a6.2,6.2,0,0,0-.992,7.375A.041.041,0,0,1,1474.777,231.092Z" transform="translate(-1453.261 -197.801)" fill="#1a2e35"/>
                            <path id="Path_2261" data-name="Path 2261" d="M1483.787,227.378c-1.592-2.148-2.635-5.214-1.831-7.839.031-.1.176-.056.188.033a36.9,36.9,0,0,0,1.938,7.651A.168.168,0,0,1,1483.787,227.378Z" transform="translate(-1473.912 -200.066)" fill="#1a2e35"/>
                            <path id="Path_2262" data-name="Path 2262" d="M1482.591,228.155c-1.592-2.147-2.637-5.213-1.833-7.839.031-.1.175-.056.189.033a36.914,36.914,0,0,0,1.936,7.651A.167.167,0,0,1,1482.591,228.155Z" transform="translate(-1470.856 -199.638)" fill="#1a2e35"/>
                            <path id="Path_2263" data-name="Path 2263" d="M1481.389,228.932c-1.59-2.147-2.635-5.213-1.83-7.837.031-.1.175-.056.188.031a36.982,36.982,0,0,0,1.938,7.653A.168.168,0,0,1,1481.389,228.932Z" transform="translate(-1467.798 -199.211)" fill="#1a2e35"/>
                            <path id="Path_2264" data-name="Path 2264" d="M1480.192,229.71c-1.592-2.148-2.635-5.214-1.832-7.839.033-.1.175-.056.189.033a36.884,36.884,0,0,0,1.938,7.651A.169.169,0,0,1,1480.192,229.71Z" transform="translate(-1464.743 -198.783)" fill="#1a2e35"/>
                            <path id="Path_2265" data-name="Path 2265" d="M1485.671,211.569c-1.743-2.44,2.043-5.154,3.79-2.711S1487.418,214.012,1485.671,211.569Z" transform="translate(-1485.223 -206.437)" fill="#1a2e35"/>
                          </g>
                          <path id="Path_2266" data-name="Path 2266" d="M1483.865,232.256c-1.7-.443-1.806-2.468-1.349-3.824a14.021,14.021,0,0,1,4.129-5.963.069.069,0,0,1,.11.023.325.325,0,0,1,.455.264c.044,2.313.377,4.78-.291,7.039C1486.53,231.112,1485.474,232.674,1483.865,232.256Zm2.7-5.98c.006-1.138-.043-2.269,0-3.407a42.271,42.271,0,0,0-2.334,3.536,15.094,15.094,0,0,0-.893,1.844c-.378.987-.659,4.422,1.857,2.939C1486.583,230.371,1486.553,227.632,1486.561,226.276Z" transform="translate(-1478.091 -198.433)" fill="#1a2e35"/>
                          <path id="Path_2267" data-name="Path 2267" d="M1486.9,219.06c1.649,1.68,2.514,4.016,3.562,6.079a.326.326,0,0,1-.279.446.071.071,0,0,1-.087.073,14.028,14.028,0,0,1-6.443-3.328c-1.042-.984-1.9-2.821-.6-4.01C1484.269,217.2,1485.936,218.08,1486.9,219.06Zm-2.176-.42c-2.917-.129-1.057,2.772-.26,3.466a15.1,15.1,0,0,0,1.654,1.211,42.176,42.176,0,0,0,3.722,2.026c-.578-.981-1.065-2-1.6-3.007C1487.588,221.142,1486.329,218.71,1484.722,218.64Z" transform="translate(-1481.418 -200.994)" fill="#1a2e35"/>
                        </g>
                      </g>
                    </g>
                    <g id="Group_3814" data-name="Group 3814" transform="translate(0)">
                      <path id="Path_2268" data-name="Path 2268" d="M1550.988,205.1l-16.674-.442s-17.216-8.848-31.354-5.842c-16.209,3.444-18.8,23.618-6.956,31.091,15.012,9.466,82.927,9.514,82.927,9.514l-14.012-25.258s-22.443-5.349-42.929-5.2l28.772,4.7Z" transform="translate(-1488.656 -198.197)" fill="#fff"/>
                      <path id="Path_2269" data-name="Path 2269" d="M1551.2,212.616a.5.5,0,0,1-.026-.129l-.023-.1c-.019-.081-.037-.163-.057-.243-.044-.167-.1-.327-.158-.49s-.124-.321-.194-.479a3.8,3.8,0,0,0-.262-.448c-.011-.016-.026-.017-.039-.028l-.026-.019a.162.162,0,0,0-.036-.017.193.193,0,0,0-.037-.016c-2.469-.527-19.27-3.388-21.77-3.742-2.52-.355-5.05-.657-7.581-.938a151.006,151.006,0,0,0-15.2-.952c-.476,0-.951,0-1.427.006-.1-.037-.208-.057-.312-.085-.242-.065-.482-.132-.727-.186-.456-.1-.914-.18-1.375-.262-.957-.172-1.917-.3-2.868-.5-.057-.012-.082.074-.025.088.955.239,1.893.543,2.847.778.276.067.552.135.83.2-1.865.048-3.726.143-5.589.26-.059,0-.062.095,0,.093,2.533-.082,5.08-.033,7.611.077,2.513.109,5.024.231,7.53.442,5.07.426,10.133,1.015,15.177,1.679,2.83.374,19.96,3.339,22.807,3.534a.13.13,0,0,0,.035,0,1.846,1.846,0,0,0,.073.2c.074.157.149.312.23.467s.153.293.243.436c.043.07.088.141.133.211l.07.1a.628.628,0,0,1,.071.11C1551.129,212.715,1551.228,212.675,1551.2,212.616Z" transform="translate(-1473.999 -195.016)" fill="#1a2e35"/>
                      <path id="Path_2270" data-name="Path 2270" d="M1504.807,231.946c-.87-1.477-1.6-3.049-2.4-4.57s-1.589-3.05-2.385-4.574c-1.59-3.04-7.315-13.273-7.888-13.994-.036-.045-.115,0-.1.056.261.787,3.824,7.556,4.646,9.068,1.643,3.02,3.373,5.983,5.08,8.969.486.851.992,1.693,1.486,2.542s1.022,1.68,1.473,2.55C1504.755,232.045,1504.837,232,1504.807,231.946Z" transform="translate(-1419.784 -192.37)" fill="#1a2e35"/>
                    </g>
                  </g>
                </g>
                <g id="Group_3821" data-name="Group 3821" transform="translate(77.896 32.083)">
                  <g id="Group_3820" data-name="Group 3820" transform="translate(0 7.904)">
                    <path id="Path_2271" data-name="Path 2271" d="M1477.626,171.957c16.024,13.611,30.169,31.717,28.445,37.173-1.823,5.768-13.812,11.632-24.133,12.357-2.112.147-7.683-15.62-5.493-16.2,1.706-.451,9.448-2.161,10.421-3.15.676-.688-10.646-16.471-13.971-25.376C1469.415,167.444,1473.337,168.313,1477.626,171.957Z" transform="translate(-1451.784 -169.383)" fill="#c36358"/>
                    <g id="Group_3819" data-name="Group 3819" transform="translate(0 35.697)">
                      <g id="Group_3817" data-name="Group 3817">
                        <path id="Path_2272" data-name="Path 2272" d="M1513.5,192.413s-6.44.262-10.644.631c-2.345.2-6.333.918-7.987,1.857-2.474,1.4-11.922,8.862-10.164,11.191,1.592,2.108,4.367-.913,4.367-.913s-3.342,3.018-1.12,4.624c2.243,1.621,5.472-2.668,5.472-2.668s-3.77,2.959-1.234,4.447c2.2,1.293,6.456-3.241,6.456-3.241s-4.3,2.671-2.173,4.215c2.348,1.708,9.583-4.287,9.583-4.287a30.273,30.273,0,0,0,12.764-.085C1519.536,208.027,1513.5,192.413,1513.5,192.413Z" transform="translate(-1484.485 -192.413)" fill="#ffa669"/>
                      </g>
                      <g id="Group_3818" data-name="Group 3818" transform="translate(3.889 7.059)">
                        <path id="Path_2273" data-name="Path 2273" d="M1498.132,204.68c.268-.326.544-.645.812-.969a20.651,20.651,0,0,1,1.648-1.831c.58-.553,1.181-1.077,1.8-1.586.654-.538,1.366-1.011,2.006-1.562a.047.047,0,1,1,.059.073,21.922,21.922,0,0,0-1.817,1.725c-.583.575-1.16,1.159-1.733,1.742s-1.158,1.1-1.736,1.654c-.288.276-.562.566-.839.854a6.856,6.856,0,0,1-.8.808c-.031.022-.065-.019-.051-.048A5.28,5.28,0,0,1,1498.132,204.68Z" transform="translate(-1494.112 -196.003)" fill="#1a2e35"/>
                        <path id="Path_2274" data-name="Path 2274" d="M1499.9,203.316a32.836,32.836,0,0,1,2.981-3.464,22.932,22.932,0,0,1,3.563-2.877.047.047,0,0,1,.059.073c-1.086,1.076-2.19,2.139-3.292,3.2-.539.519-2.914,2.953-3.193,3.176C1499.947,203.48,1499.859,203.384,1499.9,203.316Z" transform="translate(-1499.888 -196.967)" fill="#1a2e35"/>
                        <path id="Path_2275" data-name="Path 2275" d="M1494.968,206.076a32.2,32.2,0,0,1,2.861-3.207,29.386,29.386,0,0,1,3.6-2.522c.047-.023.1.039.059.073-1.131.928-2.275,1.835-3.362,2.816-.53.479-2.53,2.51-3.075,2.922C1495.005,206.2,1494.935,206.127,1494.968,206.076Z" transform="translate(-1487.24 -195.111)" fill="#1a2e35"/>
                      </g>
                    </g>
                  </g>
                  <path id="Path_2276" data-name="Path 2276" d="M1487.457,173.513s32.867,32.177,25.85,39.458-26.727,13.3-26.727,13.3-6.623-18.88-10.072-20.276c0,0,11.03-1.628,10.072-2.327s-17.9-23.73-17.9-23.73-3.933-6.533,3.2-13.665S1487.457,173.513,1487.457,173.513Z" transform="translate(-1453.729 -164.284)" fill="#fff"/>
                </g>
                <path id="Path_2278" data-name="Path 2278" d="M1483.922,151.238a8.106,8.106,0,0,1,1.9.5,7.66,7.66,0,0,1,1.456.749c.063.042.129.085.192.133a5.745,5.745,0,0,1,2.463,4.411,9.216,9.216,0,0,1-.152,2.42q-.047.263-.112.539c-.091.392-.2.8-.343,1.229-.905,2.795-.13,8.451,1.422,15.043.082.35.166.705.254,1.062.549,2.258,1.183,4.611,1.864,6.988.076.265.152.532.231.8,4.041,13.918,9.573,28.285,9.573,28.285s.226-10.894,6.523-16.17a12.306,12.306,0,0,1,8.565-2.792,17.694,17.694,0,0,0,8.9-1.716V176.591c-7.585-3.658-20.323-10.7-27.771-19.748a30.555,30.555,0,0,1-3.725-5.6Z" transform="translate(-1413.496 -139.377)" fill="#115598"/>
                <g id="Group_3832" data-name="Group 3832" transform="translate(0 17.214)">
                  <g id="Group_3661" data-name="Group 3661" transform="translate(0 0)">
                    <path id="Path_2178" data-name="Path 2178" d="M381.616,223.6s-7.964-8.593-10.562-13.759,1.512-4.4,1.512-4.4,5.1,2.588,11.433,12.171S381.616,223.6,381.616,223.6Z" transform="translate(-367.122 -205.404)" fill="#ffa669"/>
                    <path id="Path_2179" data-name="Path 2179" d="M389.565,231.116a2.343,2.343,0,0,1,.6.132,4.381,4.381,0,0,1,1.538,1.144,24.247,24.247,0,0,1,2.991,3.78c.642,1,1.227,2.232.81,3.348a.36.36,0,0,1-.017.039,4.1,4.1,0,0,1-2.784,1.989,1.321,1.321,0,0,0,.043-.284,2.936,2.936,0,0,0-.351-1.369,11.954,11.954,0,0,0-4.055-4.816,3.081,3.081,0,0,0-1.285-.583l.017-.1a2.7,2.7,0,0,1,.647-2.663A2.454,2.454,0,0,1,389.565,231.116Z" transform="translate(-384.716 -218.464)" fill="#ffa669"/>
                    <path id="Path_2180" data-name="Path 2180" d="M387.9,233.678a3.829,3.829,0,0,0,1.273-.3,5.44,5.44,0,0,1-.1.775,3.961,3.961,0,0,1-1.14,2.16,2.661,2.661,0,0,1-2.62.587l-.057-.022a.373.373,0,0,0,.017-.039c.417-1.116-.168-2.344-.81-3.348a24.252,24.252,0,0,0-2.991-3.78,4.382,4.382,0,0,0-1.538-1.144,2.346,2.346,0,0,0-.6-.132,4.092,4.092,0,0,1,1.021-2.014,2.669,2.669,0,0,1,2.341-.515,4.174,4.174,0,0,1,1.128.44,7.116,7.116,0,0,1,1.048.72,11.07,11.07,0,0,1,2.388,2.691,2.694,2.694,0,0,0-1.714,1.765C385.351,232.725,386.684,233.731,387.9,233.678Z" transform="translate(-374.489 -215.786)" fill="#ffa669"/>
                    <path id="Path_2181" data-name="Path 2181" d="M364.436,240.543a4.1,4.1,0,0,0,2.784-1.989l.057.022a2.661,2.661,0,0,0,2.62-.587,3.96,3.96,0,0,0,1.14-2.16l.043.008a2.528,2.528,0,0,0,1.926.258,8.128,8.128,0,0,1,.1-2.143,13.612,13.612,0,0,1-1.971,1.1,3.828,3.828,0,0,1-1.273.3c-1.218.053-2.551-.953-2.351-2.154a2.694,2.694,0,0,1,1.714-1.765c.159-.077.318-.148.475-.214l3.627-1.548a9.9,9.9,0,0,1,.976-.374,3.3,3.3,0,0,1,1.019-.166,3.568,3.568,0,0,1,3.019,2.542,16.922,16.922,0,0,1,.607,4.143,18.274,18.274,0,0,0,3.447,8.932c-4.543,3.032-8.757,5.569-13.925,7.165-.077-.142-.156-.282-.242-.421v0a10.833,10.833,0,0,0-2.785-3.086c-1.036-.775-2.2-1.356-3.265-2.094a13.592,13.592,0,0,1-5.707-9.894,2.944,2.944,0,0,1,.622-2.08,2.014,2.014,0,0,1,1.36-.85,1.607,1.607,0,0,1,.337.008,3.08,3.08,0,0,1,1.285.583,11.954,11.954,0,0,1,4.055,4.816,2.936,2.936,0,0,1,.351,1.369A1.32,1.32,0,0,1,364.436,240.543Z" transform="translate(-356.45 -217.46)" fill="#ffa669"/>
                    <g id="Group_3660" data-name="Group 3660" transform="translate(2.144 10.37)">
                      <g id="Group_3654" data-name="Group 3654" transform="translate(8.679 1.265)">
                        <path id="Path_2182" data-name="Path 2182" d="M379.194,240.61a.215.215,0,0,1-.234-.075,8.565,8.565,0,0,1-1.664-6.176,6.264,6.264,0,0,1-2.955,1.187,2.747,2.747,0,0,1-2.1-.894,1.81,1.81,0,0,1-.475-1.509c.182-1.091,1.273-1.694,2.316-2.14l3.626-1.55c.3-.129.649-.271,1-.384a.214.214,0,0,1,.127.409l-.016,0a10.058,10.058,0,0,0-.94.364l-3.626,1.55c-.937.4-1.914.929-2.062,1.817a1.389,1.389,0,0,0,.373,1.155,2.3,2.3,0,0,0,1.757.75,6,6,0,0,0,2.807-1.159l.336-.209a.214.214,0,0,1,.323.221,8.113,8.113,0,0,0,1.512,6.3.214.214,0,0,1-.04.3A.226.226,0,0,1,379.194,240.61Z" transform="translate(-371.748 -229.059)" fill="#1a2e35"/>
                      </g>
                      <g id="Group_3655" data-name="Group 3655" transform="translate(6.989)">
                        <path id="Path_2183" data-name="Path 2183" d="M386.5,230.314a.214.214,0,0,1-.244-.09,10.838,10.838,0,0,0-2.342-2.641,6.968,6.968,0,0,0-1.005-.694.214.214,0,1,1,.208-.374,7.423,7.423,0,0,1,1.067.736A11.274,11.274,0,0,1,386.616,230a.214.214,0,0,1-.067.3A.212.212,0,0,1,386.5,230.314Z" transform="translate(-382.796 -226.487)" fill="#1a2e35"/>
                      </g>
                      <g id="Group_3656" data-name="Group 3656" transform="translate(8.466 7.091)">
                        <path id="Path_2184" data-name="Path 2184" d="M380.77,244.792a2.681,2.681,0,0,1-1.71-.015.214.214,0,0,1,.148-.4,2.461,2.461,0,0,0,2.4-.545,4.044,4.044,0,0,0,1.167-2.728.214.214,0,1,1,.427.031,4.466,4.466,0,0,1-1.3,3.013A3,3,0,0,1,380.77,244.792Z" transform="translate(-378.92 -240.904)" fill="#1a2e35"/>
                      </g>
                      <g id="Group_3657" data-name="Group 3657" transform="translate(2.447 2.081)">
                        <path id="Path_2185" data-name="Path 2185" d="M389.934,241.6a.214.214,0,0,1-.129-.408c1.137-.366,2.352-.882,2.741-1.923.407-1.089-.256-2.325-.79-3.159a23.947,23.947,0,0,0-2.964-3.745,4.231,4.231,0,0,0-1.459-1.093,2.094,2.094,0,0,0-.577-.123.214.214,0,1,1,.03-.427,2.491,2.491,0,0,1,.7.149,4.587,4.587,0,0,1,1.618,1.2,24.434,24.434,0,0,1,3.016,3.812c.584.912,1.306,2.271.831,3.54-.453,1.212-1.776,1.783-3.011,2.18Z" transform="translate(-386.556 -230.718)" fill="#1a2e35"/>
                      </g>
                      <g id="Group_3658" data-name="Group 3658" transform="translate(0 5.469)">
                        <path id="Path_2186" data-name="Path 2186" d="M396.891,246.479a2.58,2.58,0,0,1-1.15.1,4.412,4.412,0,0,1-2.868-2.136.214.214,0,0,1,.359-.234,4.134,4.134,0,0,0,2.574,1.946,2.233,2.233,0,0,0,1.7-.473,1.543,1.543,0,0,0,.606-1.108,2.776,2.776,0,0,0-.331-1.267,11.688,11.688,0,0,0-3.985-4.73,2.964,2.964,0,0,0-1.169-.543.214.214,0,0,1,.062-.424,3.359,3.359,0,0,1,1.349.613,12.122,12.122,0,0,1,4.13,4.9,3.145,3.145,0,0,1,.37,1.469,1.966,1.966,0,0,1-.764,1.418A2.653,2.653,0,0,1,396.891,246.479Z" transform="translate(-392.441 -237.605)" fill="#1a2e35"/>
                      </g>
                      <g id="Group_3659" data-name="Group 3659" transform="translate(12.266 7.811)">
                        <path id="Path_2187" data-name="Path 2187" d="M377.369,243.055l-.012,0a2.739,2.739,0,0,1-2.036-.294.214.214,0,0,1,.217-.368,2.311,2.311,0,0,0,1.716.247.214.214,0,0,1,.115.412Z" transform="translate(-375.215 -242.367)" fill="#1a2e35"/>
                      </g>
                    </g>
                  </g>
                  <path id="Path_2188" data-name="Path 2188" d="M288.089,253.621l-13.851,10.87,14.2,26.3c1.734,2.677,9.158,7.375,12.1,6.136l16.831-7.538,12.1-36.116-21.719,8.809c-1.953.792-4.4,1.009-7.3,9.928Z" transform="translate(-263.081 -229.726)" fill="#fff"/>
                </g>
                <path id="Path_2277" data-name="Path 2277" d="M1521.622,185.711a21.827,21.827,0,0,1,9.181,8.251c3.888,6.121,6.515,18.57,6.515,18.57s4-42.391,2.205-54.667c-3.328,6.72-7.716,14.58-10.964,16.807A17.552,17.552,0,0,0,1521.622,185.711Z" transform="translate(-1485.263 -135.732)" fill="#115598"/>
              </g>
            </g>
          </g>
        </g>
      </g>
      <g id="Group_3830" data-name="Group 3830" transform="translate(423.869 106.994) rotate(45)">
        <g id="Group_3828" data-name="Group 3828" transform="translate(0 0)">
          <g transform="matrix(0.71, -0.71, 0.71, 0.71, -141.66, 50.07)" filter="url(#Path_2281)">
            <path id="Path_2281-2" data-name="Path 2281" d="M41.652,15.884A47.057,47.057,0,0,0,35.5,8.546a50.537,50.537,0,0,0-7.494-6.429C24.039-.527,20-.8,15.984,1.9A45.589,45.589,0,0,0,10.9,5.873a53.09,53.09,0,0,0-8.763,9.683C-.526,19.514-.8,23.55,1.894,27.574a45.283,45.283,0,0,0,3.968,5.091,53.848,53.848,0,0,0,9.618,8.724c4,2.713,8.072,3,12.143.26a45.615,45.615,0,0,0,5.087-3.976,53.443,53.443,0,0,0,8.714-9.625C44.131,24.037,44.308,20,41.652,15.884Z" transform="translate(135.57 64.76) rotate(45)" fill="url(#linear-gradient-2)"/>
          </g>
        </g>
        <g id="Group_3829" data-name="Group 3829" transform="translate(13.695 13.249)">
          <path id="Path_2282" data-name="Path 2282" d="M15.433,15.942c-.94.947-.944.951-1.9,0-.874-.874-.763-.681-1.615-.159a19.791,19.791,0,0,1-2.236,1.171c-.517.233-.728.119-1.011-.368s-.553-.973-.813-1.467c-.28-.532-.223-.684.339-.871a7.512,7.512,0,0,0,2.7-1.495A4.608,4.608,0,0,0,12,11.308a1.43,1.43,0,0,0-1.542-2.071,8.012,8.012,0,0,0-1.642.473c-.861.3-1.694.69-2.568.95a4.3,4.3,0,0,1-3.457-.26A4.339,4.339,0,0,1,.759,5.336a9.359,9.359,0,0,1,.424-1.105c.254-.592.252-.632-.207-1.107C.7,2.84.425,2.554.158,2.262a.478.478,0,0,1,.022-.727C.51,1.192.842.847,1.2.525s.543-.3.89.006c.226.2.434.415.655.619.464.43.553.411,1.094.07A20.74,20.74,0,0,1,5.712.153C6.285-.129,6.494-.03,6.8.528c.244.441.49.882.721,1.331.295.572.24.72-.359.94A6.466,6.466,0,0,0,4.378,4.744a2.354,2.354,0,0,0-.424.736A1.172,1.172,0,0,0,5.223,7.1a7.622,7.622,0,0,0,1.614-.427c.928-.318,1.823-.74,2.765-1.006A4.578,4.578,0,0,1,15.249,8.5a4.753,4.753,0,0,1-.3,3.887c-.356.688-.341.8.211,1.348.252.25.5.5.749.757.346.366.342.618-.009.99C15.747,15.637,15.589,15.787,15.433,15.942Z" transform="translate(0 0)" fill="#fff"/>
        </g>
      </g>
      <rect id="Rectangle_858" data-name="Rectangle 858" width="29" height="25" rx="5" transform="translate(297.296 46.23)" fill="rgba(46,123,230,0.36)"/>
      <path id="Icon_awesome-play" data-name="Icon awesome-play" d="M7.666,3.88,1.308.121A.862.862,0,0,0,0,.867V8.383a.866.866,0,0,0,1.308.746L7.666,5.372A.866.866,0,0,0,7.666,3.88Z" transform="translate(307.694 54.302)" fill="#fff"/>
    </g>
  </g>
</svg>
