<svg xmlns="http://www.w3.org/2000/svg" width="18.583" height="18.604" viewBox="0 0 18.583 18.604">
  <path id="delete" d="M-9499.454-10612.4a2.69,2.69,0,0,1-2.916-2.927v-10.255c-.576,0-1.083,0-1.59,0a.931.931,0,0,1-1.041-.881.921.921,0,0,1,1.02-.9q7.767,0,15.526,0a.921.921,0,0,1,1.037.88.927.927,0,0,1-1.024.9c-.518,0-1.037,0-1.605,0v10.241a2.7,2.7,0,0,1-2.942,2.94l-3.231,0Zm4.138-9.577q-.009,2.1,0,4.19c0,.616.322.969.861.969a.869.869,0,0,0,.883-.963c0-.7,0-1.4,0-2.095s0-1.4,0-2.1a.872.872,0,0,0-.875-.971C-9494.988-10622.941-9495.314-10622.59-9495.316-10621.976Zm-3.527-.035q-.007,2.137,0,4.271a.857.857,0,0,0,.881.923.834.834,0,0,0,.861-.929c.008-.712,0-1.425,0-2.137s.008-1.425,0-2.137a.837.837,0,0,0-.87-.923A.862.862,0,0,0-9498.844-10622.011Zm2.633-6.205c-.549,0-1.1.008-1.646,0a.9.9,0,0,1-.987-.878.885.885,0,0,1,.969-.894q1.668-.019,3.332,0a.884.884,0,0,1,.968.9.9.9,0,0,1-.989.875c-.219,0-.438.006-.657.006Z" transform="translate(9505.501 10630.501)" fill="#fff" stroke="rgba(0,0,0,0)" stroke-width="1"/>
</svg>
