<svg xmlns="http://www.w3.org/2000/svg" width="13.231" height="13.226" viewBox="0 0 13.231 13.226">
  <path id="labels" d="M98.949,327.508q0-1.123,0-2.245a1.326,1.326,0,0,1,1.374-1.383c1.5,0,3.01,0,4.515,0a1.35,1.35,0,0,1,1,.4q2.967,2.963,5.927,5.933a1.3,1.3,0,0,1-.062,1.948q-2.231,2.239-4.471,4.47a1.775,1.775,0,0,1-.408.31,1.244,1.244,0,0,1-1.422-.132,2.347,2.347,0,0,1-.245-.228q-2.847-2.846-5.695-5.691a1.594,1.594,0,0,1-.517-1.238C98.964,328.937,98.949,328.222,98.949,327.508Zm1.33-1.323a.984.984,0,0,0,.968,1,1,1,0,0,0,1-1,.983.983,0,0,0-.989-.978A.965.965,0,0,0,100.28,326.185Z" transform="translate(-98.944 -323.878)" fill="#fff"/>
</svg>
