<svg xmlns="http://www.w3.org/2000/svg" width="15.71" height="15.686" viewBox="0 0 15.71 15.686">
  <path id="remark" d="M178.4,248.22c1.286,0,2.571-.009,3.857,0a3.9,3.9,0,0,1,3.892,3.1,4.615,4.615,0,0,1,.1.983c.009,1.7.007,3.4,0,5.106a3.927,3.927,0,0,1-4.115,4.1c-1.566.005-1.235-.17-2.2,1.086-.179.233-.352.47-.529.7a1.135,1.135,0,0,1-2,.01c-.325-.429-.656-.854-.968-1.293a1.177,1.177,0,0,0-1.025-.519,8.812,8.812,0,0,1-2.071-.174,3.82,3.82,0,0,1-2.783-3.721c-.02-1.824-.026-3.649,0-5.473a3.915,3.915,0,0,1,3.981-3.9C175.825,248.209,177.111,248.22,178.4,248.22Zm-.013,5.291c1.284,0,2.569,0,3.853,0,.387,0,.619-.185.654-.5.048-.423-.224-.674-.749-.675q-3.743,0-7.486,0c-.494,0-.755.216-.751.6s.252.569.735.569Q176.511,253.513,178.383,253.511Zm-1.576,3.938c.759,0,1.518.006,2.276,0a.627.627,0,0,0,.692-.6.6.6,0,0,0-.676-.567q-2.276-.006-4.553,0a.8.8,0,0,0-.41.115.525.525,0,0,0-.2.649.6.6,0,0,0,.633.4C175.313,257.45,176.06,257.448,176.807,257.449Z" transform="translate(-170.54 -248.216)" fill="#fff"/>
</svg>
