<svg xmlns="http://www.w3.org/2000/svg" width="42.2" height="56.267" viewBox="0 0 42.2 56.267">
  <g id="after-effect" transform="translate(-1197.4 -438.367)">
    <path id="Path_14" data-name="Path 14" d="M233.747,280.932a5.276,5.276,0,0,1-5.275-5.275V229.941a5.277,5.277,0,0,1,5.275-5.275h19.342v14.066a3.536,3.536,0,0,0,3.554,3.518h14.029v33.408a5.274,5.274,0,0,1-5.274,5.275Z" transform="translate(968.928 213.701)" fill="#1f0040"/>
    <path id="Path_15" data-name="Path 15" d="M256.606,238.732V224.665l14.066,14.066Z" transform="translate(968.928 213.701)" fill="#d291ff"/>
    <path id="Path_30" data-name="Path 30" d="M-3.051-2.394h-5L-8.883,0h-2.646l4.518-12.582h2.934L.441,0H-2.223ZM-3.735-4.41-5.553-9.666-7.371-4.41ZM11.4-5.2a5.947,5.947,0,0,1-.072.972H4.041A2.479,2.479,0,0,0,4.8-2.538a2.331,2.331,0,0,0,1.638.612,2.058,2.058,0,0,0,2-1.206h2.718A4.542,4.542,0,0,1,9.495-.765,4.835,4.835,0,0,1,6.489.162,5.2,5.2,0,0,1,3.906-.477,4.5,4.5,0,0,1,2.124-2.286a5.543,5.543,0,0,1-.639-2.7A5.646,5.646,0,0,1,2.115-7.7,4.4,4.4,0,0,1,3.879-9.5a5.285,5.285,0,0,1,2.61-.63,5.243,5.243,0,0,1,2.547.612,4.307,4.307,0,0,1,1.746,1.737A5.256,5.256,0,0,1,11.4-5.2Zm-2.61-.72a2,2,0,0,0-.7-1.557,2.487,2.487,0,0,0-1.674-.585A2.287,2.287,0,0,0,4.842-7.5a2.493,2.493,0,0,0-.783,1.575Z" transform="translate(1219 483)" fill="#d291ff"/>
  </g>
</svg>
