<svg xmlns="http://www.w3.org/2000/svg" width="48.353" height="48.353" viewBox="0 0 48.353 48.353">
  <g id="audio" transform="translate(2 2)" fill="#2e7be6">
    <path d="M 8.23827075958252 45.35324096679688 C 5.756170272827148 45.35324096679688 3.44152045249939 44.54808044433594 1.720710515975952 43.08609008789062 C -0.03376951813697815 41.59548950195312 -0.9999995231628418 39.58432006835938 -0.9999995231628418 37.42304992675781 C -0.9999995231628418 35.27621078491211 -0.009419516660273075 33.27592086791992 1.789270520210266 31.79065132141113 C 3.522820472717285 30.35917091369629 5.8131103515625 29.57081985473633 8.23827075958252 29.57081985473633 C 8.825020790100098 29.57081985473633 9.411848068237305 29.6233024597168 10.01035022735596 29.73003196716309 L 10.01035022735596 10.95837020874023 C 10.01035022735596 9.407430648803711 11.17036056518555 7.827140331268311 12.65123081207275 7.360700607299805 L 12.65946006774902 7.358100414276123 L 12.6677303314209 7.355650424957275 L 40.31053924560547 -0.8297795057296753 L 40.33684921264648 -0.8375595211982727 L 40.36354064941406 -0.8438994884490967 C 40.73847961425781 -0.9328895211219788 41.26194000244141 -0.9999995231628418 41.58116149902344 -0.9999995231628418 C 43.65756225585938 -0.9999995231628418 45.34970092773438 0.6909905076026917 45.35324096679688 2.769510507583618 L 45.2752799987793 31.80362129211426 C 45.2752799987793 36.17364883422852 41.13101196289062 39.73112106323242 36.03701019287109 39.73112106323242 C 33.62092208862305 39.73112106323242 31.32957077026367 38.93151092529297 29.58504104614258 37.47959136962891 C 27.78827095031738 35.98419189453125 26.79874038696289 33.99515914916992 26.79874038696289 31.87889099121094 C 26.79874038696289 29.7320499420166 27.78931999206543 27.73176002502441 29.58801078796387 26.24649047851562 C 31.32155990600586 24.81501007080078 33.61185073852539 24.02666091918945 36.03701019287109 24.02666091918945 C 36.6237678527832 24.02666091918945 37.21094512939453 24.07920455932617 37.80995941162109 24.18602752685547 L 37.80995941162109 14.16901302337646 L 17.63246154785156 20.15108871459961 L 17.63227081298828 37.43172073364258 L 17.63227081298828 37.44189071655273 L 17.63206100463867 37.45206069946289 C 17.5882396697998 39.60469055175781 16.58133125305176 41.60824966430664 14.79682064056396 43.09365081787109 C 13.04629039764404 44.5507698059082 10.71709060668945 45.35324096679688 8.23827075958252 45.35324096679688 Z" stroke="none"/>
    <path d="M 8.23827075958252 44.35324096679688 C 12.90749073028564 44.35324096679688 16.55450057983398 41.25197982788086 16.63227081298828 37.43170928955078 L 16.63247108459473 19.404541015625 L 38.80995941162109 12.8295202255249 L 38.80995941162109 25.45096015930176 C 37.93848037719727 25.19299125671387 37.01416015625 25.02666091918945 36.03701019287109 25.02666091918945 C 31.5219898223877 25.02666091918945 27.79874038696289 28.05169105529785 27.79874038696289 31.87889099121094 C 27.79874038696289 35.62813186645508 31.5219898223877 38.73112106323242 36.03701019287109 38.73112106323242 C 40.55202865600586 38.73112106323242 44.2752799987793 35.62813186645508 44.2752799987793 31.80093002319336 L 44.35324096679688 2.771210432052612 C 44.35063934326172 1.242240428924561 43.11100006103516 4.833984235119715e-07 41.58116149902344 4.833984235119715e-07 C 41.34727096557617 4.833984235119715e-07 40.89680862426758 0.05731048434972763 40.5944709777832 0.1290704905986786 L 12.95166015625 8.31450080871582 C 11.88182067871094 8.651480674743652 11.01035022735596 9.834810256958008 11.01035022735596 10.95837020874023 L 11.01035022735596 30.99512100219727 C 10.13974094390869 30.73714065551758 9.21543025970459 30.57081985473633 8.23827075958252 30.57081985473633 C 3.723250389099121 30.57081985473633 4.833984235119715e-07 33.59585189819336 4.833984235119715e-07 37.42304992675781 C 4.833984235119715e-07 41.25197982788086 3.569050550460815 44.35324096679688 8.23827075958252 44.35324096679688 M 8.23827075958252 46.35324096679688 C 5.519220352172852 46.35324096679688 2.97463059425354 45.46358871459961 1.073240518569946 43.84817886352539 C -0.9085695147514343 42.1644401550293 -1.999999523162842 39.88262176513672 -1.999999523162842 37.42304992675781 C -1.999999523162842 34.972412109375 -0.8803995251655579 32.69826889038086 1.152550458908081 31.01955986022949 C 3.064850568771362 29.44046974182129 5.581280708312988 28.57081985473633 8.23827075958252 28.57081985473633 C 8.495583534240723 28.57081985473633 8.752715110778809 28.5799446105957 9.010350227355957 28.59830474853516 L 9.010350227355957 10.95837020874023 C 9.010350227355957 8.963440895080566 10.44643020629883 7.006730556488037 12.35080051422119 6.406890392303467 L 12.3838005065918 6.396810531616211 L 40.07921981811523 -1.804199457168579 L 40.13259887695312 -1.816869497299194 C 40.51602172851562 -1.907869458198547 41.13671112060547 -1.999999523162842 41.58116149902344 -1.999999523162842 C 44.2080192565918 -1.999999523162842 46.34877014160156 0.1388304829597473 46.35324096679688 2.767810583114624 L 46.35322952270508 2.776580572128296 L 46.2752799987793 31.80292320251465 C 46.2741584777832 36.72621536254883 41.68172073364258 40.73112106323242 36.03701019287109 40.73112106323242 C 33.38768005371094 40.73112106323242 30.869140625 39.84934234619141 28.94534111022949 38.24822235107422 C 27.97786140441895 37.44301223754883 27.21281051635742 36.49953079223633 26.67144966125488 35.4439697265625 C 26.09235954284668 34.31486129760742 25.79874038696289 33.11540222167969 25.79874038696289 31.87889099121094 C 25.79874038696289 29.42825126647949 26.9183406829834 27.15410995483398 28.95129013061523 25.47540092468262 C 30.86359024047852 23.89631080627441 33.38002014160156 23.02666091918945 36.03701019287109 23.02666091918945 C 36.29458236694336 23.02666091918945 36.55198669433594 23.03580856323242 36.80995941162109 23.05422019958496 L 36.80995941162109 15.50850772857666 L 18.63245391845703 20.89764213562012 L 18.63186073303223 37.47241973876953 C 18.58204078674316 39.91926956176758 17.4472713470459 42.18854904174805 15.4365701675415 43.86223220825195 C 13.506760597229 45.46858215332031 10.95036029815674 46.35324096679688 8.23827075958252 46.35324096679688 Z" stroke="none" fill="#dbe9fb"/>
  </g>
</svg>
