<svg xmlns="http://www.w3.org/2000/svg" width="54.577" height="47.755" viewBox="0 0 54.577 47.755">
  <g id="zip-files" transform="translate(-151.211 -693.623)">
    <path id="folder-solid" d="M54.577,43.939v30.7a5.118,5.118,0,0,1-5.117,5.117H5.117A5.118,5.118,0,0,1,0,74.638V37.117A5.118,5.118,0,0,1,5.117,32H22.172l6.822,6.822H49.46A5.118,5.118,0,0,1,54.577,43.939Z" transform="translate(151.211 661.623)" fill="#2e7be6"/>
    <path id="Path_22" data-name="Path 22" d="M202.563,189.215c-.109-.7-.213-1.377-.317-2.05-.184-1.191-.363-2.383-.552-3.573a.92.92,0,0,0-1.044-.88q-3.279,0-6.558,0a.924.924,0,0,0-1.056.9c-.285,1.82-.562,3.641-.843,5.461-.006.037-.015.074-.027.133a.835.835,0,0,1-.422-.61c-.517-2.314-1.067-4.621-1.53-6.945a3.878,3.878,0,0,1,3.749-4.585q3.411-.044,6.822,0a3.887,3.887,0,0,1,3.729,4.626c-.474,2.3-1.007,4.593-1.519,6.887A.884.884,0,0,1,202.563,189.215Z" transform="translate(-31.866 533.666)" fill="#fff"/>
    <path id="Path_23" data-name="Path 23" d="M224.153,262.756a3.884,3.884,0,0,1-3.813-4.6q.756-4.91,1.511-9.819c.032-.207.094-.278.309-.277,1.333.009,2.666.006,4,0,.164,0,.265.017.3.222.509,3.362,1.046,6.719,1.536,10.083A3.851,3.851,0,0,1,224.153,262.756Zm-.012-2.272a2.251,2.251,0,1,0-2.235-2.28A2.235,2.235,0,0,0,224.141,260.483Z" transform="translate(-58.656 470.563)" fill="#fff"/>
    <path id="Path_24" data-name="Path 24" d="M218.888,98.249q-1.661,0-3.323,0a1.112,1.112,0,0,1-1.076-.636,1.133,1.133,0,0,1,1.011-1.631c2.264,0,4.529-.009,6.793,0a1.114,1.114,0,0,1,1.12,1.157,1.128,1.128,0,0,1-1.173,1.106C221.123,98.257,220.005,98.249,218.888,98.249Z" transform="translate(-53.392 605.705)" fill="#fff"/>
    <path id="Path_25" data-name="Path 25" d="M218.943,138.831c-1.127,0-2.254.01-3.381,0a1.121,1.121,0,0,1-1-1.7,1.051,1.051,0,0,1,.945-.552q3.411-.009,6.822,0a1.127,1.127,0,0,1-.009,2.255c-1.127.013-2.254,0-3.381,0Z" transform="translate(-53.425 569.636)" fill="#fff"/>
  </g>
</svg>
