<svg xmlns="http://www.w3.org/2000/svg" width="42.2" height="56.267" viewBox="0 0 42.2 56.267">
  <g id="illustrator" transform="translate(-416.4 -438.367)">
    <path id="Path_14" data-name="Path 14" d="M233.747,280.932a5.276,5.276,0,0,1-5.275-5.275V229.941a5.277,5.277,0,0,1,5.275-5.275h19.342v14.066a3.536,3.536,0,0,0,3.554,3.518h14.029v33.408a5.274,5.274,0,0,1-5.274,5.275Z" transform="translate(187.928 213.701)" fill="#331a00"/>
    <path id="Path_15" data-name="Path 15" d="M256.606,238.732V224.665l14.066,14.066Z" transform="translate(187.928 213.701)" fill="#ff9908"/>
    <path id="Path_27" data-name="Path 27" d="M0-2.394H-5L-5.832,0H-8.478L-3.96-12.582h2.934L3.492,0H.828ZM-.684-4.41-2.5-9.666-4.32-4.41Zm7.146-6.75a1.535,1.535,0,0,1-1.107-.423,1.4,1.4,0,0,1-.441-1.053,1.4,1.4,0,0,1,.441-1.053,1.535,1.535,0,0,1,1.107-.423,1.535,1.535,0,0,1,1.107.423,1.4,1.4,0,0,1,.441,1.053,1.4,1.4,0,0,1-.441,1.053A1.535,1.535,0,0,1,6.462-11.16ZM7.7-9.972V0H5.184V-9.972Z" transform="translate(438 483)" fill="#ff9908"/>
  </g>
</svg>
