<svg xmlns="http://www.w3.org/2000/svg" width="22.992" height="19.477" viewBox="0 0 22.992 19.477">
  <path id="image" d="M20.1,32H2.83A2.822,2.822,0,0,0-.009,34.782V48.695A2.822,2.822,0,0,0,2.83,51.477H20.1a2.832,2.832,0,0,0,2.879-2.782V34.782A2.807,2.807,0,0,0,20.1,32ZM4.989,34.782a2.124,2.124,0,0,1,2.159,2.087,2.1,2.1,0,0,1-2.159,2.087A2.1,2.1,0,0,1,2.83,36.869,2.15,2.15,0,0,1,4.989,34.782ZM20.06,48.329a.722.722,0,0,1-.634.365H3.681a.723.723,0,0,1-.642-.38.676.676,0,0,1,.06-.725l3.149-4.174a.734.734,0,0,1,1.163,0l1.46,1.935,4.2-6.047a.684.684,0,0,1,.6-.347.729.729,0,0,1,.6.31l5.758,8.347A.676.676,0,0,1,20.06,48.329Z" transform="translate(0.009 -32)" fill="#2e7be6"/>
</svg>
