<svg xmlns="http://www.w3.org/2000/svg" width="42.2" height="56.267" viewBox="0 0 42.2 56.267">
  <g id="indesign" transform="translate(-676.4 -438.367)">
    <path id="Path_14" data-name="Path 14" d="M233.747,280.932a5.276,5.276,0,0,1-5.275-5.275V229.941a5.277,5.277,0,0,1,5.275-5.275h19.342v14.066a3.536,3.536,0,0,0,3.554,3.518h14.029v33.408a5.274,5.274,0,0,1-5.274,5.275Z" transform="translate(447.928 213.701)" fill="#49021f"/>
    <path id="Path_15" data-name="Path 15" d="M256.606,238.732V224.665l14.066,14.066Z" transform="translate(447.928 213.701)" fill="#f36"/>
    <path id="Path_28" data-name="Path 28" d="M-4.842-12.564V0h-2.52V-12.564Zm1.836,7.542A5.772,5.772,0,0,1-2.4-7.7,4.4,4.4,0,0,1-.756-9.5a4.407,4.407,0,0,1,2.322-.63,4.235,4.235,0,0,1,1.854.423,3.707,3.707,0,0,1,1.4,1.125V-13.32H7.38V0H4.824V-1.476A3.415,3.415,0,0,1,3.51-.288a4.116,4.116,0,0,1-1.962.45,4.283,4.283,0,0,1-2.3-.648A4.512,4.512,0,0,1-2.4-2.313,5.867,5.867,0,0,1-3.006-5.022Zm7.848.036a3.232,3.232,0,0,0-.36-1.575A2.538,2.538,0,0,0,3.51-7.569,2.6,2.6,0,0,0,2.2-7.92a2.552,2.552,0,0,0-1.3.342,2.575,2.575,0,0,0-.963,1A3.129,3.129,0,0,0-.432-5.022,3.233,3.233,0,0,0-.063-3.447,2.657,2.657,0,0,0,.909-2.412a2.469,2.469,0,0,0,1.287.36A2.6,2.6,0,0,0,3.51-2.4a2.538,2.538,0,0,0,.972-1.008A3.232,3.232,0,0,0,4.842-4.986Z" transform="translate(698 483)" fill="#f36"/>
  </g>
</svg>
