<svg xmlns="http://www.w3.org/2000/svg" width="42.2" height="56.267" viewBox="-7 0 58 56.267">
  <g id="pdf" transform="translate(-156.4 -190.367)">
    <path id="Path_14" data-name="Path 14" d="M233.747,280.932a5.276,5.276,0,0,1-5.275-5.275V229.941a5.277,5.277,0,0,1,5.275-5.275h19.342v14.066a3.536,3.536,0,0,0,3.554,3.518h14.029v33.408a5.274,5.274,0,0,1-5.274,5.275Z" transform="translate(-72.072 -34.299)" fill="red"/>
    <path id="Path_15" data-name="Path 15" d="M256.606,238.732V224.665l14.066,14.066Z" transform="translate(-72.072 -34.299)" fill="rgba(255,0,0,0.39)"/>
    <path id="Path_16" data-name="Path 16" d="M284.4-758.866a18.233,18.233,0,0,1-.66,4.143c-.16.609-.322,1.217-.468,1.829a.508.508,0,0,0,.046.333,29.225,29.225,0,0,0,2.92,4.087c.21.262.423.521.629.786a.257.257,0,0,0,.27.113c1-.124,1.994-.261,2.995-.349a11.1,11.1,0,0,1,3.876.218,3.252,3.252,0,0,1,1.337.668,1.861,1.861,0,0,1,.644,1.7,1.381,1.381,0,0,1-.754,1.057,3.164,3.164,0,0,1-1.462.391,8.767,8.767,0,0,1-4.663-1.226,10.413,10.413,0,0,1-2.2-1.616.32.32,0,0,0-.324-.085,44.4,44.4,0,0,0-6.355,1.716.633.633,0,0,0-.341.254c-.733,1.1-1.449,2.209-2.216,3.284a12.273,12.273,0,0,1-2.36,2.546,4.2,4.2,0,0,1-2.736,1,1.713,1.713,0,0,1-1.712-1.363,1.49,1.49,0,0,1,.158-.935,4.476,4.476,0,0,1,1.287-1.5,17.725,17.725,0,0,1,3.391-2.07c.738-.367,1.478-.729,2.211-1.1a.6.6,0,0,0,.254-.258q1.937-4.1,3.5-8.358a.617.617,0,0,0,0-.381,22.306,22.306,0,0,1-.932-3.052,13.4,13.4,0,0,1-.258-3.36,4.094,4.094,0,0,1,.131-.812,1.582,1.582,0,0,1,2.2-1.05,2.366,2.366,0,0,1,1.394,1.687A6.12,6.12,0,0,1,284.4-758.866Zm1.913,11.449a39.761,39.761,0,0,1-3.446-4.6c-.685,2.119-1.528,4.119-2.411,6.157A40.985,40.985,0,0,1,286.317-747.418Zm1.186.384-.01.047c.057.041.115.082.172.124a13.649,13.649,0,0,0,3.782,1.875,4.224,4.224,0,0,0,1.548.3,1.276,1.276,0,0,0,1.222-1.028,1.239,1.239,0,0,0-.713-1.279,4.408,4.408,0,0,0-1.952-.383,19.114,19.114,0,0,0-3,.2C288.2-747.131,287.852-747.08,287.5-747.033Zm-10.134,3.04-.033-.031c-.622.312-1.245.621-1.865.936a14.166,14.166,0,0,0-3.066,1.936,6.183,6.183,0,0,0-.816.932.9.9,0,0,0-.164.763.9.9,0,0,0,1.246.618,4.146,4.146,0,0,0,1.611-1.064,22.432,22.432,0,0,0,3.048-4.006A.7.7,0,0,0,277.37-743.994Zm4.639-10.85.049-.006c.01-.024.022-.048.03-.072a21.419,21.419,0,0,0,.985-4.873,2.91,2.91,0,0,0-.15-1.308.921.921,0,0,0-.788-.577.741.741,0,0,0-.726.418,2.181,2.181,0,0,0-.223.492,4.711,4.711,0,0,0-.108,1.894,15.459,15.459,0,0,0,.819,3.677C281.938-755.081,281.972-754.962,282.009-754.843Z" transform="translate(-105.429 979.013)" fill="#fff"/>
  </g>
</svg>
