<svg xmlns="http://www.w3.org/2000/svg" width="42.2" height="56.267" viewBox="0 0 42.2 56.267">
  <g id="photoshop" transform="translate(-156.4 -438.367)">
    <path id="Path_14" data-name="Path 14" d="M233.747,280.932a5.276,5.276,0,0,1-5.275-5.275V229.941a5.277,5.277,0,0,1,5.275-5.275h19.342v14.066a3.536,3.536,0,0,0,3.554,3.518h14.029v33.408a5.274,5.274,0,0,1-5.274,5.275Z" transform="translate(-72.072 213.701)" fill="#001e36"/>
    <path id="Path_15" data-name="Path 15" d="M256.606,238.732V224.665l14.066,14.066Z" transform="translate(-72.072 213.701)" fill="#31a8ff"/>
    <path id="Path_26" data-name="Path 26" d="M.027-8.676A3.913,3.913,0,0,1-.45-6.786,3.5,3.5,0,0,1-1.944-5.364a5.434,5.434,0,0,1-2.565.54H-6.615V0h-2.52V-12.564h4.626a5.59,5.59,0,0,1,2.484.5A3.511,3.511,0,0,1-.486-10.674,3.9,3.9,0,0,1,.027-8.676ZM-4.617-6.858a2.184,2.184,0,0,0,1.548-.477,1.758,1.758,0,0,0,.5-1.341q0-1.836-2.052-1.836h-2v3.654ZM5.625.162a5.258,5.258,0,0,1-2.2-.441,3.88,3.88,0,0,1-1.539-1.2A3.034,3.034,0,0,1,1.269-3.15H3.807a1.382,1.382,0,0,0,.567.954,1.972,1.972,0,0,0,1.233.378,1.915,1.915,0,0,0,1.125-.288.872.872,0,0,0,.4-.738.778.778,0,0,0-.495-.729A9.315,9.315,0,0,0,5.067-4.1,13.347,13.347,0,0,1,3.24-4.662a3.172,3.172,0,0,1-1.224-.882,2.367,2.367,0,0,1-.513-1.6A2.585,2.585,0,0,1,1.98-8.658a3.2,3.2,0,0,1,1.368-1.08,5.128,5.128,0,0,1,2.1-.4,4.282,4.282,0,0,1,2.844.891,3.3,3.3,0,0,1,1.17,2.4H7.047a1.306,1.306,0,0,0-.5-.945,1.84,1.84,0,0,0-1.179-.351,1.858,1.858,0,0,0-1.053.252.8.8,0,0,0-.369.7.825.825,0,0,0,.5.765,7.827,7.827,0,0,0,1.566.531A13.293,13.293,0,0,1,7.8-5.328a3.148,3.148,0,0,1,1.215.891,2.447,2.447,0,0,1,.531,1.593A2.642,2.642,0,0,1,9.072-1.3,3.142,3.142,0,0,1,7.7-.225,5.183,5.183,0,0,1,5.625.162Z" transform="translate(178 483)" fill="#31a8ff"/>
  </g>
</svg>
