<svg xmlns="http://www.w3.org/2000/svg" width="42.2" height="56.267" viewBox="0 0 42.2 56.267">
  <g id="premier" transform="translate(-936.4 -438.367)">
    <g id="Group_209" data-name="Group 209" transform="translate(780 248)">
      <path id="Path_14" data-name="Path 14" d="M233.747,280.932a5.276,5.276,0,0,1-5.275-5.275V229.941a5.277,5.277,0,0,1,5.275-5.275h19.342v14.066a3.536,3.536,0,0,0,3.554,3.518h14.029v33.408a5.274,5.274,0,0,1-5.274,5.275Z" transform="translate(-72.072 -34.299)" fill="#00005b"/>
      <path id="Path_15" data-name="Path 15" d="M256.606,238.732V224.665l14.066,14.066Z" transform="translate(-72.072 -34.299)" fill="#99f"/>
    </g>
    <path id="Path_29" data-name="Path 29" d="M1.3-8.676a3.913,3.913,0,0,1-.477,1.89A3.5,3.5,0,0,1-.675-5.364a5.434,5.434,0,0,1-2.565.54H-5.346V0h-2.52V-12.564H-3.24a5.59,5.59,0,0,1,2.484.5A3.511,3.511,0,0,1,.783-10.674,3.9,3.9,0,0,1,1.3-8.676ZM-3.348-6.858A2.184,2.184,0,0,0-1.8-7.335a1.758,1.758,0,0,0,.5-1.341q0-1.836-2.052-1.836h-2v3.654ZM5.6-8.424A3.543,3.543,0,0,1,6.867-9.666a3.529,3.529,0,0,1,1.791-.45V-7.47H7.992A2.553,2.553,0,0,0,6.2-6.912a2.572,2.572,0,0,0-.6,1.944V0H3.078V-9.972H5.6Z" transform="translate(958 483)" fill="#99f"/>
  </g>
</svg>
