<?xml version="1.0" encoding="utf-8"?>
<!-- Generator: Adobe Illustrator 24.0.0, SVG Export Plug-In . SVG Version: 6.00 Build 0)  -->
<svg version="1.1" id="Layer_1" xmlns="http://www.w3.org/2000/svg" xmlns:xlink="http://www.w3.org/1999/xlink" x="0px" y="0px"
	 viewBox="0 0 85.3 85.3" style="enable-background:new 0 0 85.3 85.3;" xml:space="preserve">
<style type="text/css">
	.st0{fill:#FFFFFF;}
	.st1{fill:none;stroke:#FFFFFF;stroke-width:1.5;stroke-linecap:round;stroke-miterlimit:10;}
	.st2{fill:#EDEDED;}
	.st3{fill:url(#SVGID_1_);}
	.st4{fill:url(#SVGID_2_);}
	.st5{fill:url(#SVGID_3_);}
	.st6{fill:url(#SVGID_4_);}
	.st7{fill:url(#SVGID_5_);}
	.st8{fill:url(#SVGID_6_);}
	.st9{fill:url(#SVGID_7_);}
	.st10{fill:url(#SVGID_8_);}
	.st11{fill:url(#SVGID_9_);}
	.st12{fill:url(#SVGID_10_);}
	.st13{fill:url(#SVGID_11_);}
	.st14{fill:url(#SVGID_12_);}
	.st15{fill:url(#SVGID_13_);}
	.st16{fill:url(#SVGID_14_);}
	.st17{fill:url(#SVGID_15_);}
	.st18{fill:url(#SVGID_16_);}
	.st19{fill:url(#SVGID_17_);}
	.st20{fill:#72C8B5;}
	.st21{fill:none;stroke:#FFFFFF;stroke-width:3;stroke-linecap:round;stroke-miterlimit:10;}
	.st22{fill:url(#SVGID_18_);}
	.st23{fill:url(#SVGID_19_);}
	.st24{fill:url(#SVGID_20_);}
	.st25{fill:url(#SVGID_21_);}
	.st26{fill:url(#SVGID_22_);}
	.st27{fill:url(#SVGID_23_);}
	.st28{fill:url(#SVGID_24_);}
	.st29{fill:url(#SVGID_25_);}
	.st30{fill:url(#SVGID_26_);}
	.st31{fill:url(#SVGID_27_);}
	.st32{fill:url(#SVGID_28_);}
	.st33{fill:url(#SVGID_29_);}
	.st34{fill:url(#SVGID_30_);}
	.st35{fill:url(#SVGID_31_);}
	.st36{fill:url(#SVGID_32_);}
	.st37{fill:url(#SVGID_33_);}
	.st38{fill:url(#SVGID_34_);}
	.st39{fill:none;stroke:#FFFFFF;stroke-linecap:round;stroke-miterlimit:10;}
</style>
<g>
	<g>
		<path class="st0" d="M42.7,35.5c4,0,7.2,3.2,7.2,7.2s-3.2,7.2-7.2,7.2s-7.2-3.2-7.2-7.2S38.7,35.5,42.7,35.5 M42.7,34
			c-4.8,0-8.7,3.9-8.7,8.7c0,4.8,3.9,8.7,8.7,8.7s8.7-3.9,8.7-8.7C51.4,37.9,47.5,34,42.7,34L42.7,34z"/>
	</g>
	<g>
		<path class="st0" d="M42.8,23.7c0.2,0,0.5,0,0.7,0c9,0.3,16.4,7.1,17.8,15.8H55c-1.3-5.3-6-9.3-11.6-9.6c-0.2,0-0.4,0-0.6,0
			c-6.9,0-12.5,5.5-12.6,12.4h0V57c0,3.4-2.8,6.2-6.2,6.2V42.3h0C24.1,32,32.5,23.7,42.8,23.7 M42.8,22.2
			c-10.6,0-19.4,8.2-20.2,18.6h-0.1l0,1.5v20.9v1.5H24c4.3,0,7.7-3.5,7.7-7.7V42.3V42c0.3-5.9,5.2-10.6,11.1-10.6c0.2,0,0.4,0,0.5,0
			c4.9,0.2,9.1,3.7,10.2,8.4l0.3,1.1H55h6.3h1.8l-0.3-1.7c-1.6-9.5-9.7-16.7-19.3-17C43.3,22.2,43.1,22.2,42.8,22.2L42.8,22.2z"/>
	</g>
	<path class="st1" d="M33.1,59c3,1.8,6.6,2.8,10.4,2.7c9-0.3,16.4-7.1,17.8-15.8H55c-1.3,5.3-6,9.3-11.6,9.6
		c-4.1,0.2-7.8-1.6-10.3-4.5"/>
	<path class="st1" d="M29.3,25.1c-1.1-1.8-3.1-3-5.3-3v9.2"/>
</g>
</svg>
