<svg xmlns="http://www.w3.org/2000/svg" width="39.047" height="36.422" viewBox="0 0 39.047 36.422" style="enable-background:new 0 0 49.7 38;">
  <g id="Group_7" data-name="Group 7" transform="translate(-0.313 -0.188)">
    <path id="Subtraction_3" data-name="Subtraction 3" d="M9.273,34H0V24.727H3.091V9.273H0V0H9.273V3.091H24.727V0H34V9.273H30.909v5c-.35-.029-.708-.044-1.067-.044a12.986,12.986,0,0,0-2.024.159V9.273H24.727V6.182H9.273V9.273H6.182V24.727H9.273v3.09h7.752a12.819,12.819,0,0,0,.563,3.091H9.273V34ZM3.091,27.817v3.091H6.182V27.817ZM27.818,3.091v3.09h3.091V3.091Zm-24.727,0v3.09H6.182V3.091Z" transform="translate(0.313 0.187)" fill="#fff"/>
    <g id="Group_5" data-name="Group 5" transform="translate(8.25 7.563)">
      <rect id="Rectangle_3" data-name="Rectangle 3" width="7" height="7" rx="1" transform="translate(1.063 8.625)" fill="#fff"/>
      <circle id="Ellipse_1" data-name="Ellipse 1" cx="3.5" cy="3.5" r="3.5" transform="translate(8.063 0.625)" fill="#fff"/>
      <path id="Polygon_1" data-name="Polygon 1" d="M3.106,1.789a1,1,0,0,1,1.789,0L7.276,6.553A1,1,0,0,1,6.382,8H1.618A1,1,0,0,1,.724,6.553Z" transform="translate(0.063 -0.375)" fill="#fff"/>
    </g>
    <path id="Icon_ionic-ios-close-circle" data-name="Icon ionic-ios-close-circle" d="M13.43,3.375A10.055,10.055,0,1,0,23.484,13.43,10.053,10.053,0,0,0,13.43,3.375ZM15.977,17.07,13.43,14.522,10.882,17.07A.773.773,0,1,1,9.79,15.977l2.548-2.548L9.79,10.882A.773.773,0,1,1,10.882,9.79l2.548,2.548L15.977,9.79a.773.773,0,1,1,1.092,1.092L14.522,13.43l2.548,2.548a.776.776,0,0,1,0,1.092A.767.767,0,0,1,15.977,17.07Z" transform="translate(15.875 13.125)" fill="#fff"/>
  </g>
</svg>
