<?xml version="1.0" encoding="utf-8"?>
<!-- Generator: Adobe Illustrator 24.0.0, SVG Export Plug-In . SVG Version: 6.00 Build 0)  -->
<svg version="1.1" id="Group_8" xmlns="http://www.w3.org/2000/svg" xmlns:xlink="http://www.w3.org/1999/xlink" x="0px" y="0px"
	 viewBox="0 0 49.7 38" style="enable-background:new 0 0 49.7 38;" xml:space="preserve">
<style type="text/css">
	.st0{fill:#FFFDFD;}
</style>
<path id="Subtraction_5" class="st0" d="M24.2,33.7h-6.3c-1.2,0-2.1-0.9-2.1-2.1v-6.3c0-1.2,0.9-2.1,2.1-2.1h6.3
	c1.2,0,2.1,0.9,2.1,2.1v6.3C26.3,32.7,25.4,33.7,24.2,33.7z M8.4,33.7H2.1c-1.2,0-2.1-0.9-2.1-2.1v-6.3c0-1.2,0.9-2.1,2.1-2.1h6.3
	c1.2,0,2.1,0.9,2.1,2.1v6.3C10.5,32.7,9.6,33.7,8.4,33.7z M6.8,21.1H3.7v-3.8c0-1.4,1.1-2.5,2.5-2.5h13.3v-4.2h-2.6
	c-1.2,0-2.1-0.9-2.1-2.1V2.1c0-1.2,0.9-2.1,2.1-2.1h8.4c1.2,0,2.1,0.9,2.1,2.1v6.3c0,1.2-0.9,2.1-2.1,2.1h-2.6v4.2h13.3
	c0.7,0,1.5,0.3,1.9,0.9c-2,0.3-3.8,1.1-5.4,2.3h-9.8V21h-3.2v-3.2H6.8V21.1L6.8,21.1z"/>
<path id="Icon_ionic-ios-close-circle" class="st0" d="M39.6,17.9c-5.6,0-10.1,4.5-10.1,10.1S34.1,38,39.6,38s10.1-4.5,10.1-10.1
	c0,0,0,0,0,0C49.7,22.4,45.2,17.9,39.6,17.9C39.6,17.9,39.6,17.9,39.6,17.9z M42.2,31.6L39.6,29l-2.5,2.5c-0.3,0.3-0.8,0.3-1.1,0
	c-0.3-0.3-0.3-0.8,0-1.1c0,0,0,0,0,0l2.5-2.5L36,25.4c-0.3-0.3-0.3-0.8-0.1-1.1c0.3-0.3,0.8-0.3,1.1-0.1c0,0,0,0,0.1,0.1l2.5,2.5
	l2.5-2.5c0.3-0.3,0.8-0.3,1.1-0.1s0.3,0.8,0.1,1.1c0,0,0,0-0.1,0.1l-2.5,2.5l2.5,2.5c0.3,0.3,0.3,0.8,0,1.1
	C43,31.9,42.5,31.9,42.2,31.6C42.2,31.6,42.2,31.6,42.2,31.6z"/>
</svg>
