<?xml version="1.0" encoding="utf-8"?>
<svg
							version="1.1"
							id="Layer_1"
							xmlns="http://www.w3.org/2000/svg"
							xmlns:xlink="http://www.w3.org/1999/xlink"
							x="0px"
							y="0px"
							viewBox="0 0 56.51 56.51"
							style="enable-background: new 0 0 56.51 56.51"
							xml:space="preserve"
						>
							<style type="text/css">
								.st0 {
									fill: #2e7be6;
								}
								.st1 {
									fill: #2e7be6;
									stroke: #2e7be6;
									stroke-width: 0.5;
									stroke-miterlimit: 10;
								}
							</style>
							<g>
								<path
									class="st0"
									d="M37.62,9.75c-9.29,0-18.55,0-27.82,0c0,12.34,0,24.66,0,37.02c0.09,0,0.18,0,0.26,0c4.01,0,8.02,0,12.03,0
			c0.74,0,1.23,0.51,1.18,1.22c-0.04,0.49-0.42,0.91-0.9,0.99C22.26,48.99,22.15,49,22.03,49c-4.05,0-8.09,0-12.14,0
			c-1.15,0-2.03-0.65-2.28-1.7c-0.05-0.19-0.06-0.39-0.06-0.59c0-12.3,0-24.61,0-36.91c0-1.33,0.97-2.29,2.3-2.29
			c9.23,0,18.45,0,27.68,0c1.34,0,2.3,0.93,2.31,2.26c0.01,2,0.01,4,0,5.99c0,0.61-0.4,1.08-0.95,1.14
			c-0.59,0.07-1.11-0.28-1.24-0.85c-0.03-0.12-0.03-0.25-0.03-0.38c0-1.88,0-3.77,0-5.65C37.62,9.94,37.62,9.86,37.62,9.75z"
								/>
								<path
									class="st0"
									d="M23.84,15.63c3.09,0,6.17,0,9.26,0c0.6,0,1.03,0.32,1.16,0.85c0.16,0.63-0.28,1.28-0.93,1.36
			c-0.11,0.01-0.23,0.02-0.34,0.02c-6.11,0-12.23,0-18.34,0c-0.44,0-0.83-0.1-1.09-0.48c-0.25-0.35-0.28-0.74-0.09-1.12
			c0.19-0.39,0.52-0.61,0.96-0.63c0.34-0.01,0.68,0,1.02,0C18.23,15.63,21.03,15.63,23.84,15.63z"
								/>
								<path
									class="st0"
									d="M18.51,23.68c1.35,0,2.71,0,4.06,0c0.49,0,0.9,0.32,1.05,0.78c0.15,0.46-0.01,0.98-0.41,1.23
			c-0.2,0.12-0.46,0.21-0.69,0.21c-2.67,0.01-5.35,0.01-8.02,0.01c-0.68,0-1.16-0.49-1.15-1.14c0.01-0.63,0.51-1.09,1.19-1.09
			C15.86,23.68,17.18,23.68,18.51,23.68z"
								/>
								<path
									class="st0"
									d="M16.99,33.97c-0.84,0-1.68,0-2.52,0c-0.49,0-0.9-0.29-1.06-0.73c-0.16-0.43-0.03-0.91,0.31-1.22
			c0.22-0.19,0.47-0.28,0.76-0.28c1.67,0,3.35-0.01,5.02,0c0.64,0,1.13,0.49,1.13,1.11c0.01,0.62-0.49,1.12-1.14,1.12
			C18.66,33.98,17.82,33.97,16.99,33.97z"
								/>
								<path
									class="st0"
									d="M16.97,42.02c-0.84,0-1.68,0-2.52,0c-0.55,0-1.02-0.41-1.1-0.94c-0.08-0.55,0.23-1.06,0.75-1.23
			c0.13-0.04,0.26-0.06,0.39-0.06c1.66,0,3.32-0.01,4.98,0c0.59,0,1.04,0.38,1.13,0.94c0.09,0.53-0.21,1.05-0.72,1.22
			c-0.14,0.05-0.29,0.07-0.44,0.07C18.62,42.03,17.8,42.02,16.97,42.02z"
								/>
								<g>
									<path
										class="st1"
										d="M33.44,44.83c0,0.16,0,0.31,0,0.45c0,0.34-0.2,0.55-0.54,0.55c-1.64,0-3.29,0-4.93,0
				c-0.31,0-0.5-0.18-0.54-0.48c-0.17-1.41-0.35-2.81-0.53-4.22c-0.17-1.35-0.34-2.69-0.51-4.04c-0.13-1.01-0.25-2.01-0.38-3.02
				c-0.03-0.22-0.06-0.44-0.08-0.67c-0.04-0.29,0.16-0.54,0.45-0.58c0.04,0,0.08,0,0.12,0c2.12,0,4.25,0,6.37,0
				c0.23,0,0.42,0.08,0.52,0.3c0.03,0.08,0.04,0.17,0.05,0.25c0.01,0.25,0,0.51,0,0.8c0.03-0.05,0.05-0.08,0.06-0.1
				c0.8-1.6,1.6-3.21,2.4-4.81c0.03-0.05,0.04-0.11,0.04-0.17c0-1.23,0-2.47,0-3.7c0-0.39,0.19-0.58,0.58-0.58
				c0.33,0,0.65,0.01,0.98,0c0.51-0.03,0.92,0.17,1.28,0.51c0.48,0.45,0.82,1,1.09,1.59c0.31,0.67,0.51,1.37,0.57,2.11
				c0.04,0.45-0.02,0.89-0.13,1.32c-0.2,0.78-0.42,1.56-0.63,2.34c-0.01,0.04-0.02,0.08-0.04,0.14c0.06,0,0.1,0,0.14,0
				c2.38,0,4.75,0,7.13,0c0.98,0,1.76,0.61,2,1.55c0.2,0.79-0.14,1.65-0.83,2.12c-0.02,0.02-0.05,0.03-0.08,0.05
				c0.38,0.47,0.54,1.01,0.44,1.61c-0.1,0.6-0.42,1.06-0.94,1.39c0.43,0.54,0.57,1.15,0.39,1.81c-0.18,0.66-0.62,1.11-1.26,1.36
				c0.06,0.12,0.13,0.24,0.18,0.37c0.5,1.16-0.28,2.54-1.54,2.72c-0.14,0.02-0.29,0.03-0.43,0.03c-3.09,0-6.19,0-9.28,0
				c-0.71,0-1.22-0.3-1.52-0.95c-0.01-0.02-0.05-0.05-0.08-0.05C33.8,44.82,33.63,44.83,33.44,44.83z M33.45,43.82
				c0.05,0,0.09,0,0.13,0c0.29,0,0.57,0,0.86,0c0.28,0,0.49,0.2,0.51,0.47c0.02,0.34,0.22,0.53,0.56,0.53c1.44,0,2.88,0,4.32,0
				c1.71,0,3.42,0,5.13,0c0.55,0,1-0.45,1-1c0-0.55-0.43-0.98-0.99-1c-0.13-0.01-0.24-0.04-0.34-0.13c-0.15-0.14-0.21-0.35-0.14-0.55
				c0.07-0.19,0.25-0.32,0.46-0.33c0.35,0,0.69,0,1.04,0c0.48-0.01,0.9-0.38,0.96-0.85c0.07-0.5-0.23-0.96-0.7-1.1
				c-0.1-0.03-0.2-0.03-0.3-0.04c-0.29-0.02-0.5-0.24-0.49-0.52c0.01-0.28,0.23-0.48,0.52-0.48c0.16,0,0.32,0,0.47,0
				c0.56,0,1-0.43,1.01-0.98c0.01-0.55-0.42-1-0.99-1.02c-0.3-0.01-0.51-0.22-0.51-0.5c0-0.28,0.22-0.5,0.52-0.5
				c0.17,0,0.34,0,0.51,0c0.64-0.02,1.09-0.63,0.93-1.26c-0.12-0.45-0.52-0.74-1.01-0.74c-2.62,0-5.23,0-7.85,0
				c-0.05,0-0.09,0-0.14,0c-0.33-0.02-0.54-0.31-0.45-0.63c0.01-0.03,0.02-0.07,0.03-0.1c0.26-0.91,0.53-1.81,0.78-2.72
				c0.1-0.36,0.17-0.74,0.17-1.12c-0.02-0.78-0.24-1.5-0.6-2.18c-0.21-0.4-0.45-0.77-0.79-1.07c-0.09-0.08-0.2-0.16-0.3-0.17
				c-0.26-0.03-0.53-0.01-0.81-0.01c0,0.05,0,0.09,0,0.13c0,1.11,0,2.21,0,3.32c0,0.1-0.02,0.21-0.06,0.29
				c-0.9,1.82-1.81,3.64-2.72,5.46c-0.1,0.2-0.26,0.3-0.49,0.3c-0.07,0-0.14,0-0.22,0C33.45,38.16,33.45,40.98,33.45,43.82z
				M32.44,33.82c-1.82,0-3.62,0-5.44,0c0.46,3.67,0.92,7.34,1.37,11c1.36,0,2.71,0,4.06,0C32.44,41.15,32.44,37.49,32.44,33.82z"
									/>
									<path
										class="st1"
										d="M30.69,43.82c-0.41,0-0.75-0.33-0.75-0.75c0-0.42,0.34-0.75,0.76-0.75c0.41,0,0.75,0.34,0.74,0.75
				C31.44,43.49,31.1,43.82,30.69,43.82z"
									/>
								</g>
							</g>
						</svg>