<?xml version="1.0" encoding="utf-8"?>
<svg
							version="1.1"
							id="Layer_1"
							xmlns="http://www.w3.org/2000/svg"
							xmlns:xlink="http://www.w3.org/1999/xlink"
							x="0px"
							y="0px"
							viewBox="0 0 56.51 56.51"
							style="enable-background: new 0 0 56.51 56.51"
							xml:space="preserve"
						>
							<style type="text/css">
								.st0 {
									fill: #2e7be6;
								}
							</style>
							<g>
								<path
									class="st0"
									d="M35.45,49.05c-0.35-0.04-0.7-0.07-1.05-0.12c-3.01-0.41-5.57-1.73-7.66-3.92c-1.87-1.97-3.04-4.31-3.39-7.01
			c-0.59-4.64,0.88-8.54,4.38-11.64c1.94-1.71,4.24-2.7,6.8-3.01c6.72-0.8,12.48,3.57,14.03,9.5c0.2,0.77,0.27,1.58,0.4,2.37
			c0.01,0.06,0.02,0.12,0.04,0.19c0,0.49,0,0.99,0,1.48c-0.01,0.08-0.03,0.15-0.04,0.23c-0.05,0.41-0.08,0.83-0.15,1.24
			c-0.53,2.99-1.94,5.49-4.22,7.49c-1.94,1.71-4.2,2.73-6.77,3.08c-0.36,0.05-0.71,0.08-1.07,0.12
			C36.33,49.05,35.89,49.05,35.45,49.05z M46.77,36.17c0.01-5.85-4.76-10.66-10.57-10.67c-5.94-0.01-10.73,4.73-10.75,10.63
			c-0.01,5.88,4.76,10.68,10.62,10.69C41.98,46.82,46.77,42.06,46.77,36.17z"
								/>
								<path
									class="st0"
									d="M37.57,9.7c-9.29,0-18.55,0-27.82,0c0,12.34,0,24.66,0,37.02c0.09,0,0.18,0,0.26,0c4.01,0,8.02,0,12.03,0
			c0.74,0,1.23,0.51,1.18,1.22c-0.04,0.49-0.42,0.91-0.9,0.99c-0.11,0.02-0.22,0.03-0.34,0.03c-4.05,0-8.09,0-12.14,0
			c-1.15,0-2.03-0.65-2.28-1.7c-0.05-0.19-0.06-0.39-0.06-0.59c0-12.3,0-24.61,0-36.91c0-1.33,0.97-2.29,2.3-2.29
			c9.23,0,18.45,0,27.68,0c1.34,0,2.3,0.93,2.31,2.26c0.01,2,0.01,4,0,5.99c0,0.61-0.4,1.08-0.95,1.14
			c-0.59,0.07-1.11-0.28-1.24-0.85c-0.03-0.12-0.03-0.25-0.03-0.38c0-1.88,0-3.77,0-5.65C37.57,9.89,37.57,9.81,37.57,9.7z"
								/>
								<path
									class="st0"
									d="M23.79,15.58c3.09,0,6.17,0,9.26,0c0.6,0,1.03,0.32,1.16,0.85c0.16,0.63-0.28,1.28-0.93,1.36
			c-0.11,0.01-0.23,0.02-0.34,0.02c-6.11,0-12.23,0-18.34,0c-0.44,0-0.83-0.1-1.09-0.48c-0.25-0.35-0.28-0.74-0.09-1.12
			c0.19-0.39,0.52-0.61,0.96-0.63c0.34-0.01,0.68,0,1.02,0C18.18,15.58,20.98,15.58,23.79,15.58z"
								/>
								<path
									class="st0"
									d="M18.46,23.64c1.35,0,2.71,0,4.06,0c0.49,0,0.9,0.32,1.05,0.78c0.15,0.46-0.01,0.98-0.41,1.23
			c-0.2,0.12-0.46,0.21-0.69,0.21c-2.67,0.01-5.35,0.01-8.02,0.01c-0.68,0-1.16-0.49-1.15-1.14c0.01-0.63,0.51-1.09,1.19-1.09
			C15.81,23.63,17.13,23.63,18.46,23.64z"
								/>
								<path
									class="st0"
									d="M16.94,33.92c-0.84,0-1.68,0-2.52,0c-0.49,0-0.9-0.29-1.06-0.73c-0.16-0.43-0.03-0.91,0.31-1.22
			c0.22-0.19,0.47-0.28,0.76-0.28c1.67,0,3.35-0.01,5.02,0c0.64,0,1.13,0.49,1.13,1.11c0.01,0.62-0.49,1.12-1.14,1.12
			C18.6,33.93,17.77,33.92,16.94,33.92z"
								/>
								<path
									class="st0"
									d="M16.92,41.97c-0.84,0-1.68,0-2.52,0c-0.55,0-1.02-0.41-1.1-0.94c-0.08-0.55,0.23-1.06,0.75-1.23
			c0.13-0.04,0.26-0.06,0.39-0.06c1.66,0,3.32-0.01,4.98,0c0.59,0,1.04,0.38,1.13,0.94c0.09,0.53-0.21,1.05-0.72,1.22
			c-0.14,0.05-0.29,0.07-0.44,0.07C18.57,41.98,17.74,41.97,16.92,41.97z"
								/>
								<path
									class="st0"
									d="M30.83,29.13c3.6,0,7.18,0,10.74,0c0.35,3.09-1.14,5.3-3.4,7.17c0.09,0.08,0.17,0.15,0.26,0.22
			c1.05,0.89,1.94,1.91,2.54,3.16c0.42,0.87,0.64,1.79,0.64,2.76c0,0.34,0,0.69,0,1.04c-3.6,0-7.17,0-10.78,0c0-0.33,0-0.65,0-0.97
			c-0.02-1.17,0.29-2.24,0.86-3.25c0.61-1.08,1.43-1.97,2.37-2.77c0.06-0.05,0.13-0.11,0.21-0.18c-0.19-0.16-0.36-0.31-0.53-0.46
			c-1.1-0.99-2.01-2.12-2.53-3.52c-0.23-0.63-0.37-1.27-0.37-1.94C30.82,29.96,30.83,29.56,30.83,29.13z M39.19,31.35
			c-2,0-3.97,0-5.94,0c0.01,0.04,0,0.08,0.02,0.11c0.08,0.2,0.15,0.4,0.25,0.58c0.6,1.19,1.54,2.08,2.6,2.85
			c0.05,0.03,0.16,0.03,0.21-0.01c0.79-0.57,1.51-1.23,2.09-2.02C38.75,32.41,39.02,31.92,39.19,31.35z M39.21,41.25
			c-0.09-0.23-0.16-0.43-0.26-0.63c-0.61-1.22-1.56-2.13-2.64-2.92c-0.04-0.03-0.15-0.03-0.2,0.01c-0.98,0.7-1.84,1.52-2.45,2.57
			c-0.17,0.3-0.3,0.63-0.46,0.97C35.22,41.25,37.19,41.25,39.21,41.25z"
								/>
							</g>
						</svg>