<svg xmlns="http://www.w3.org/2000/svg" width="115" height="115" viewBox="0 0 115 115">
  <g id="subcategory-icon" transform="translate(-0.432 0.174)">
    <circle id="Ellipse_3" data-name="Ellipse 3" cx="57.5" cy="57.5" r="57.5" transform="translate(0.432 -0.174)" fill="rgba(46,123,230,0.09)"/>
    <g id="Group_52" data-name="Group 52" transform="translate(15.372 26.357)">
      <g id="Group_42" data-name="Group 42" transform="translate(31.107)">
        <path id="Path_7" data-name="Path 7" d="M791.479,135.758c0,1.343.006,2.542,0,3.741-.008,1.058-.513,1.648-1.372,1.63-.83-.018-1.305-.586-1.313-1.6-.009-1.313-.016-2.626,0-3.939a2.417,2.417,0,0,1,2.471-2.509c1.368-.026,2.738-.019,4.107,0a1.329,1.329,0,0,1,1.479,1.355c-.011.8-.573,1.311-1.512,1.324C794.09,135.77,792.839,135.758,791.479,135.758Z" transform="translate(-783.407 -127.688)" fill="rgba(46,123,230,0.3)"/>
        <path id="Path_8" data-name="Path 8" d="M777.855,137.918h1.31v-.045h9.35v.022a5.313,5.313,0,0,0,5.107-5.542q.019-5.169,0-10.337a5.352,5.352,0,0,0-5.594-5.611q-5.127-.01-10.253,0a5.358,5.358,0,0,0-5.662,5.629q-.015,5.084,0,10.169A5.365,5.365,0,0,0,777.855,137.918Zm-3.051-15.9a2.693,2.693,0,0,1,2.941-2.92c1.736-.014,3.471,0,5.207,0,1.68,0,3.359-.011,5.039,0a2.693,2.693,0,0,1,2.941,2.921q.021,5.165,0,10.33a2.677,2.677,0,0,1-2.9,2.878q-5.165.02-10.33,0a2.677,2.677,0,0,1-2.9-2.878Q774.782,127.182,774.8,122.016Z" transform="translate(-772.107 -116.401)" fill="rgba(46,123,230,0.3)"/>
      </g>
      <path id="Path_11" data-name="Path 11" d="M833.343-40.057h-3.755V-43.7H775.755v3.638H772v-7.394h61.343Z" transform="translate(-761.465 74.919)" fill="rgba(46,123,230,0.3)"/>
      <g id="Group_48" data-name="Group 48" transform="translate(57.587 36.234)">
        <path id="Path_7-2" data-name="Path 7" d="M791.892,136.172c0,1.549.007,2.932,0,4.314-.009,1.22-.591,1.9-1.583,1.88-.957-.02-1.506-.676-1.514-1.851-.01-1.514-.018-3.029,0-4.543a2.787,2.787,0,0,1,2.85-2.894c1.578-.03,3.158-.022,4.736,0a1.533,1.533,0,0,1,1.705,1.563c-.013.924-.661,1.512-1.744,1.527C794.9,136.186,793.461,136.172,791.892,136.172Z" transform="translate(-782.582 -126.864)" fill="#2e7be6"/>
        <path id="Path_8-2" data-name="Path 8" d="M778.737,141.218h1.511v-.052h10.784v.026a6.128,6.128,0,0,0,5.891-6.392q.022-5.962,0-11.923a6.172,6.172,0,0,0-6.452-6.472q-5.913-.011-11.826,0a6.18,6.18,0,0,0-6.53,6.492q-.017,5.864,0,11.728C772.122,138.646,774.7,141.211,778.737,141.218Zm-3.519-18.34a3.106,3.106,0,0,1,3.392-3.368c2-.016,4,0,6.006,0,1.937,0,3.875-.012,5.812,0a3.106,3.106,0,0,1,3.392,3.369q.024,5.957,0,11.914a3.088,3.088,0,0,1-3.343,3.319q-5.957.023-11.915,0a3.088,3.088,0,0,1-3.343-3.319Q775.193,128.835,775.218,122.878Z" transform="translate(-772.107 -116.401)" fill="#2e7be6"/>
      </g>
      <g id="Group_50" data-name="Group 50" transform="translate(0 36.234)">
        <path id="Path_7-3" data-name="Path 7" d="M791.892,136.172c0,1.549.007,2.932,0,4.314-.009,1.22-.591,1.9-1.583,1.88-.957-.02-1.506-.676-1.514-1.851-.01-1.514-.018-3.029,0-4.543a2.787,2.787,0,0,1,2.85-2.894c1.578-.03,3.158-.022,4.736,0a1.533,1.533,0,0,1,1.705,1.563c-.013.924-.661,1.512-1.744,1.527C794.9,136.186,793.461,136.172,791.892,136.172Z" transform="translate(-782.582 -126.864)" fill="#2e7be6"/>
        <path id="Path_8-3" data-name="Path 8" d="M778.737,141.218h1.511v-.052h10.784v.026a6.128,6.128,0,0,0,5.891-6.392q.022-5.962,0-11.923a6.172,6.172,0,0,0-6.452-6.472q-5.913-.011-11.826,0a6.18,6.18,0,0,0-6.53,6.492q-.017,5.864,0,11.728C772.122,138.646,774.7,141.211,778.737,141.218Zm-3.519-18.34a3.106,3.106,0,0,1,3.392-3.368c2-.016,4,0,6.006,0,1.937,0,3.875-.012,5.812,0a3.106,3.106,0,0,1,3.392,3.369q.024,5.957,0,11.914a3.088,3.088,0,0,1-3.343,3.319q-5.957.023-11.915,0a3.088,3.088,0,0,1-3.343-3.319Q775.193,128.835,775.218,122.878Z" transform="translate(-772.107 -116.401)" fill="#2e7be6"/>
      </g>
      <path id="Path_12" data-name="Path 12" d="M795.755-48.423H792v-4.862h3.755Z" transform="translate(-752.008 76.285)" fill="rgba(46,123,230,0.3)"/>
    </g>
  </g>
</svg>
